<svg width="32" height="32" viewBox="0 0 32 32" fill="none" xmlns="http://www.w3.org/2000/svg">
<path d="M15.552 2.67183C8.82809 2.89579 3.16663 8.33329 2.69788 15.052C2.2083 22.1562 7.29163 28.1614 14.0104 29.1718V19.5312H11.8541C10.8854 19.5312 10.1041 18.75 10.1041 17.7812C10.1041 16.8125 10.8854 16.0312 11.8541 16.0312H14.0052V13.6979C14.0052 9.8385 15.8854 8.14058 19.0989 8.14058C19.5729 8.14058 19.9791 8.151 20.3229 8.17183C21.1718 8.20829 21.8281 8.91663 21.8281 9.76558C21.8281 10.651 21.1145 11.3645 20.2291 11.3645H19.6406C18.2812 11.3645 17.802 12.6562 17.802 14.1145V16.0312H20.2968C21.0833 16.0312 21.6875 16.7343 21.5677 17.5104L21.4218 18.4479C21.3229 19.0729 20.7864 19.5364 20.151 19.5364H17.802V29.1979C24.3125 28.3125 29.3333 22.75 29.3333 16C29.3333 8.48954 23.1198 2.42704 15.552 2.67183Z" fill="black"/>
</svg>
