<svg width="205" height="48" viewBox="0 0 205 48" fill="none" xmlns="http://www.w3.org/2000/svg">
<g clip-path="url(#clip0_70_743)">
<path fill-rule="evenodd" clip-rule="evenodd" d="M46.5804 28.6753H42.5261L46.072 23.9376H50.8826L53.7899 27.8221V24.2244H59.1708V46.9527H53.7899V28.6753H50.3742L48.4773 26.1257L46.5804 28.6753ZM45.7869 46.9839V30.427H51.1677V46.9527L45.7869 46.9839ZM69.6536 43.7549C67.3723 43.7549 66.0705 42.2712 65.9775 40.0146V40.0021H78.041C78.289 34.398 75.3506 29.9408 69.4614 29.9408C64.6137 29.9408 60.5966 33.5689 60.5966 38.6307C60.5966 44.1725 64.2355 47.4141 69.5854 47.4141C73.2553 47.4141 76.7764 45.7621 77.7558 41.9408H72.7159C72.4411 42.5138 72.0034 42.992 71.4583 43.3149C70.9133 43.6378 70.2852 43.7909 69.6536 43.7549ZM69.4614 33.6001C71.2591 33.6001 72.5609 35.1149 72.6539 36.985H65.9775C66.2936 34.9715 67.5583 33.6001 69.4614 33.6001ZM91.1273 46.9528H89.0072V45.2011H88.9576C88.2571 46.6287 86.6082 47.252 84.8414 47.252C80.8678 47.252 78.8964 44.0915 78.8964 40.3949C78.8964 36.6983 80.8182 33.6624 84.767 33.6624C86.0874 33.6624 87.9844 34.1611 88.9328 35.6946H88.9824V29.0307H91.1273V46.9528ZM85.1328 45.3694C87.9844 45.3694 89.0816 42.9133 89.0816 40.4822C89.0816 37.9139 87.9286 35.5637 85.015 35.5637C82.1014 35.5637 81.1405 38.0572 81.1405 40.5507C81.1405 42.9819 82.3804 45.3383 85.1328 45.3383V45.3694ZM98.6283 47.252C101.523 47.252 103.569 45.6998 104.146 42.8385V42.8073H102.038C101.66 44.4842 100.438 45.3382 98.6903 45.3382C95.8759 45.3382 94.5988 43.3372 94.6732 41.0806H104.338C104.462 37.9387 103.067 33.6437 98.4981 33.6437C94.977 33.6437 92.4291 36.505 92.4291 40.3948C92.5593 44.3907 94.5121 47.252 98.6283 47.252ZM100.976 36.5992C101.671 37.2832 102.073 38.2139 102.094 39.1917H94.6856C94.8344 37.2094 96.1548 35.5325 98.3741 35.5325C99.3468 35.5323 100.281 35.9152 100.976 36.5992ZM105.708 24.2244H122.359V28.9683H111.591V33.6125H120.902V38.1943H111.591V46.9527H105.708V24.2244ZM128.657 30.4271H123.431H123.425V46.9528H128.806V38.7741C128.806 36.7232 130.2 34.8531 132.86 34.8531C133.557 34.8644 134.25 34.9713 134.918 35.171V30.2401C134.511 30.1524 134.095 30.1085 133.678 30.1092C131.341 30.1092 129.512 31.225 128.719 33.3258H128.657V30.4271ZM134.924 35.5325C134.926 34.6334 135.163 33.7506 135.613 32.9734C136.062 32.1962 136.708 31.5522 137.484 31.1065C139.105 30.2955 140.901 29.9034 142.71 29.9657C146.603 29.9657 150.372 30.826 150.372 35.5075V42.7325C150.372 44.1351 150.372 45.6561 150.992 46.9652H145.574C145.407 46.4605 145.301 45.9372 145.258 45.4068C144.536 46.092 143.684 46.6249 142.754 46.9739C141.823 47.323 140.832 47.4811 139.84 47.439C136.71 47.439 134.261 45.8556 134.261 42.452C134.261 38.0258 138.201 37.5071 141.68 37.0491C142.429 36.9505 143.157 36.8546 143.82 36.7231C144.737 36.5299 145.246 36.212 145.246 35.1896C145.246 33.9429 143.758 33.4753 142.648 33.4753C141.161 33.4753 140.212 34.1486 139.958 35.5387H134.924V35.5325ZM141.892 44.1039C144.452 44.1039 145.308 42.6452 145.178 39.2353C144.682 39.546 143.911 39.6958 143.109 39.8518C142.688 39.9337 142.258 40.0173 141.855 40.1268C140.683 40.4447 139.642 40.9185 139.642 42.2275C139.642 43.5366 140.683 44.0977 141.892 44.0977V44.1039ZM157.563 30.4271H152.338V46.9528H157.718V37.945C157.718 36.131 158.605 34.4104 160.632 34.4104C163.359 34.4104 163.343 36.3777 163.325 38.4658V38.4662V38.4667C163.324 38.6331 163.322 38.8003 163.322 38.9673V46.9528H168.703V36.3554C168.703 33.9616 168.263 29.9533 162.783 29.9533C160.818 29.9533 158.605 31.0006 157.625 32.6899H157.563V30.4271ZM181.399 36.48C181.358 35.817 181.06 35.1964 180.57 34.7505C180.081 34.3045 179.437 34.0685 178.777 34.0925C175.764 34.0925 175.287 36.6733 175.287 38.9673C175.287 41.0993 176.21 43.2936 178.486 43.2936C180.345 43.2936 181.312 42.2089 181.554 40.4634H186.78C186.309 44.8832 182.875 47.4265 178.535 47.4265C173.576 47.4265 169.924 44.0229 169.924 38.9673C169.924 33.7123 173.247 29.9533 178.535 29.9533C182.62 29.9533 186.265 32.1164 186.644 36.48H181.399ZM196.153 43.7549C193.872 43.7549 192.576 42.2712 192.483 40.0146V40.0021H204.541C204.795 34.398 201.85 29.9408 195.961 29.9408C191.119 29.9408 187.096 33.5689 187.096 38.6307C187.096 44.1725 190.741 47.4141 196.091 47.4141C199.761 47.4141 203.276 45.7621 204.262 41.9408H199.222C198.946 42.5143 198.507 42.9928 197.961 43.3156C197.415 43.6385 196.786 43.7914 196.153 43.7549ZM195.961 33.6001C197.765 33.6001 199.067 35.1149 199.16 36.985H192.483C192.799 34.9715 194.064 33.6001 195.961 33.6001Z" fill="white"/>
<path fill-rule="evenodd" clip-rule="evenodd" d="M69.8643 20.6463C73.001 20.6463 75.2203 18.9819 75.8403 15.865H73.559C73.1498 17.6853 71.7984 18.6079 69.9387 18.6079C66.8949 18.6079 65.5187 16.4323 65.5993 13.9886H76.0572C76.1936 10.5912 74.6934 5.94085 69.7341 5.94085C65.9216 5.94085 63.163 9.03903 63.163 13.2531C63.2994 17.5294 65.4071 20.6463 69.8643 20.6463ZM72.4184 9.1359C73.1711 9.87885 73.6031 10.8897 73.621 11.9502H65.5993C65.7605 9.79955 67.1925 7.97929 69.5977 7.97929C70.6525 7.97751 71.6656 8.39294 72.4184 9.1359ZM73.0816 0.455139H70.1371L67.8124 4.36371H69.5419L73.0816 0.455139ZM54.8686 0.916418H45.7869V20.3221H48.3533V12.0312H54.6206C57.1127 12.0312 57.5714 13.6333 57.838 15.5346C57.9895 16.2966 58.0156 17.0897 58.0396 17.8175C58.0754 18.9056 58.1064 19.8477 58.5447 20.3221H61.4087C60.5564 19.2741 60.4617 17.7414 60.3671 16.2105V16.2105C60.3413 15.7926 60.3154 15.375 60.2742 14.9673C60.0821 13.066 59.6233 11.4078 57.3792 10.9715V10.9154C59.7039 10.2671 60.733 8.3346 60.733 5.99694C60.733 2.89875 58.4889 0.916418 54.8686 0.916418ZM58.1665 6.40836C58.1665 9.23226 56.1084 9.85564 53.7032 9.85564H48.3533V3.092H54.7322C57.1375 3.092 58.1665 4.50083 58.1665 6.40836ZM90.5074 19.1252C90.5074 23.6883 88.4245 26.0259 84.0231 26.0259C81.4009 26.0259 78.3757 24.9662 78.2393 21.893H80.533C80.6446 23.5823 82.6407 24.1808 84.1533 24.1808C87.1537 24.1808 88.3439 22.0052 88.3439 18.8509V17.9283H88.2881C87.8847 18.7279 87.2611 19.3939 86.4917 19.8471C85.7224 20.3003 84.8396 20.5214 83.9487 20.4841C79.7829 20.4841 77.7062 17.1927 77.7062 13.3652C77.7062 10.0488 79.3242 5.94076 84.1595 5.94076C85.0007 5.90665 85.8348 6.1069 86.5699 6.51941C87.305 6.93192 87.9125 7.54065 88.3253 8.27842V6.27115H90.5074V19.1252ZM88.2385 13.0098C88.2385 10.5163 87.1537 7.9792 84.2649 7.9792C81.3761 7.9792 80.1301 10.3979 80.1301 13.0909C80.1301 15.5844 81.0475 18.4457 84.0727 18.4457C87.0979 18.4457 88.2199 15.6467 88.2199 13.0098H88.2385ZM94.0843 3.74031H96.378V0.916418H94.0843V3.74031ZM96.378 6.27122H94.0843V20.3221H96.378V6.27122ZM106.005 5.94083C110.438 5.94083 112.787 9.17616 112.787 13.3091C112.787 17.4421 110.407 20.6463 106.005 20.6463C101.604 20.6463 99.1862 17.411 99.1862 13.3091C99.1862 9.20733 101.542 5.94083 106.005 5.94083ZM106.005 18.6078C108.411 18.6078 110.345 16.7377 110.345 13.3091C110.345 9.88057 108.398 7.97927 106.005 7.97927C103.612 7.97927 101.666 9.88681 101.666 13.3091C101.666 16.7315 103.569 18.6078 106.005 18.6078ZM117.622 6.27112H115.465V20.322H117.759V12.3864C117.759 9.8493 119.11 7.97917 121.894 7.97917C122.272 7.94855 122.653 8.00055 123.009 8.13159C123.366 8.26264 123.69 8.46964 123.96 8.73842C124.229 9.0072 124.438 9.33141 124.571 9.68884C124.705 10.0463 124.76 10.4285 124.733 10.8093V20.322H127.027V11.0774C127.027 8.06021 125.892 5.94073 122.216 5.94073C121.297 5.89148 120.382 6.10549 119.579 6.55789C118.776 7.0103 118.117 7.68255 117.678 8.49658H117.622V6.27112Z" fill="white"/>
<path d="M27.5242 17.8785C27.3463 17.9307 27.1723 17.9952 27.0034 18.0717C26.9662 18.0717 26.9352 18.0717 26.9414 18.0218C26.9848 17.8535 26.2161 18.5704 26.1789 18.2961C26.1789 18.2462 26.2161 18.2961 26.1108 18.2961C26.3897 18.3335 24.3874 18.9694 24.3874 18.9195C24.3363 18.8215 24.3138 18.7109 24.3226 18.6006C24.3314 18.4903 24.371 18.3847 24.437 18.2961C24.5982 17.8909 24.096 17.3236 24.2882 17.492C24.2573 17.4675 24.2322 17.4362 24.215 17.4006C24.1978 17.3649 24.1889 17.3259 24.1889 17.2862C24.1889 17.2466 24.1978 17.2075 24.215 17.1719C24.2322 17.1363 24.2573 17.105 24.2882 17.0805C24.375 17.1429 24.2882 17.0805 24.3378 16.8873C24.3936 16.8499 24.2324 16.6317 24.375 16.7065C24.4928 16.5241 24.5704 16.3185 24.6025 16.1034C24.6346 15.8883 24.6204 15.6689 24.561 15.4598C24.2324 14.6868 24.375 9.13871 24.561 9.35066C24.6168 8.96417 24.2634 8.68365 24.4308 8.39689C24.4308 8.10391 24.1704 8.09767 24.2076 7.89819C24.0588 7.31222 23.2406 7.32469 23.3273 7.20001C22.8934 7.29352 21.294 9.88053 21.2816 9.9491C21.3808 9.84936 20.1968 11.6322 20.2216 11.6385C20.0914 11.6385 19.9488 11.8442 19.9178 12.1122C19.9178 12.1434 19.2483 12.96 19.2979 12.7979C19.0685 13.1782 18.802 13.5398 18.5974 13.9262C18.7586 13.8265 18.306 14.2442 18.3742 14.2317C18.4424 14.2192 17.8659 15.4785 17.8597 15.3725C17.8535 15.2665 17.2398 15.9959 17.1468 15.9959C17.0042 16.5881 14.8221 15.1356 14.7787 14.4748C14.7787 14.4748 14.7353 13.8514 14.444 13.7891L13.0182 12.4862C12.1379 11.3081 11.4436 11.3392 10.148 10.1985C10.0139 9.8564 9.83901 9.53196 9.62726 9.23222C9.13752 9.35689 8.47422 10.1236 8.6106 10.3107C8.40603 10.3979 8.36263 10.1361 8.28204 10.0426C8.30396 10.6997 8.3765 11.3542 8.49901 12C8.46802 12.2431 8.6106 13.4836 8.66639 13.2966L8.75938 13.4026C8.75938 13.4026 8.6106 13.5896 8.75938 13.7081C8.96395 14.0634 9.37929 14.3314 9.22431 14.8052C9.04454 14.8987 9.22431 15.547 9.22431 15.3351C9.02594 16.3574 11.4126 18.2836 11.0841 19.6488C10.9291 19.7673 11.5428 20.4966 11.4126 20.4592C11.045 20.7264 10.6205 20.9036 10.1728 20.9766C10.0488 21.0514 9.91861 20.9766 9.78223 20.9766C9.64585 20.9766 8.54241 20.5029 8.26344 20.7086C8.26344 20.7086 7.36457 20.5029 7.35837 20.5465C7.51955 20.3595 6.34171 20.7959 6.52149 20.4094C6.59588 20.1101 5.49863 20.7273 5.77139 20.5652C5.77139 20.5652 5.28786 20.8333 5.30026 20.7585C5.31266 20.6836 4.88492 20.7585 4.9903 20.7585C4.91591 20.7585 4.45098 20.6026 4.51917 20.6525C4.265 20.4779 4.20921 20.7148 3.89925 20.5652C3.76069 20.6169 3.61273 20.6381 3.46532 20.6275H2.78341C2.78341 20.6275 2.20069 20.8146 2.1635 20.6275C2.1635 20.6275 1.66137 21.0016 1.51259 20.7522C1.57458 20.5465 0.892674 20.9205 0.812085 20.933C0.731496 20.9455 0.402944 20.7709 0.464935 20.8769C0.409143 20.8769 0 21.413 0 21.413C0 21.413 2.26268 23.0899 1.91553 22.8281C2.17414 23.0265 2.44542 23.2077 2.72762 23.3704C2.63463 23.6135 3.5707 23.3704 3.42192 23.9127C4.2898 23.4016 6.06895 25.7829 6.69507 25.4275C6.77565 25.4275 7.04222 25.8452 7.129 25.814C6.98642 25.6894 7.58154 26.0135 7.39557 26.001C7.47616 26.0946 7.44516 26.0634 7.73032 26.3564C8.44322 26.3564 8.74078 26.9174 8.97015 27.1169C9.75124 28.6255 6.49049 30.0904 6.22393 30.8572C6.22393 30.9008 6.22393 30.932 6.16814 30.9195C6.11234 30.907 5.7156 31.1314 5.65981 31.3746L5.17008 31.9979C4.74234 31.8733 3.63889 33.6249 3.19255 33.8681L2.1387 34.3543C2.04789 34.4469 1.96495 34.547 1.89074 34.6535C1.80628 34.8046 1.6846 34.9312 1.53739 35.0213C1.27746 35.2364 1.02914 35.4653 0.793488 35.707L0.626112 36.0187L0.892675 36.1371C0.814449 36.2237 0.747764 36.3201 0.694302 36.4239C0.657108 36.4987 0.56412 36.7169 0.768691 36.7605C0.973263 36.8042 1.10345 36.8104 1.15304 36.9101C1.20263 37.0099 2.05191 37.0784 2.1201 37.066L2.60363 36.854C3.2307 36.717 3.87971 36.717 4.50677 36.854C5.19101 36.7053 5.861 36.4967 6.50909 36.2307C6.57108 36.2307 7.74892 35.8255 7.74892 35.8255C8.06507 35.6759 8.78417 35.5574 8.98874 35.2956C9.37871 35.1254 9.80566 35.0588 10.2286 35.1023C10.3278 35.1585 13.0926 34.5787 13.1856 34.2234C13.2485 34.2322 13.3072 34.2602 13.3538 34.3037C13.4004 34.3472 13.4325 34.404 13.4459 34.4665C13.4588 34.99 13.4256 35.5136 13.3467 36.0312C13.3467 35.8878 12.9562 36.2992 13.0926 36.5174C13.3715 36.6047 13.3529 36.5174 13.5265 36.9101C13.4459 36.7294 13.5265 37.7392 13.5265 38.1008C13.5265 38.294 13.8427 38.9423 13.3343 39.1917C13.3343 39.1917 13.043 39.8151 13.0306 39.8151C13.0678 39.5159 13.0678 39.9647 13.0306 39.8836C13.2909 39.759 13.2104 40.5569 13.1546 40.6504C13.2042 40.5257 13.0182 40.8062 12.9996 40.7127C12.5842 41.5356 13.4583 41.6229 12.9562 41.7164C13.1732 41.7849 13.2847 42.8759 13.2723 42.72C13.3225 43.0799 13.2907 43.4465 13.1794 43.7922C13.105 43.5616 12.981 44.2099 13.0182 44.4156C13.105 44.827 12.9004 45.6062 13.2909 45.787C13.229 45.6249 13.5823 46.161 13.5823 46.161C14.4936 46.5475 14.7167 45.3507 15.1259 45.1574C15.2623 45.1574 15.4172 44.5777 15.5536 44.6213C15.5536 44.5777 16.1115 41.9408 16.5331 42.0779C16.853 41.5828 17.1388 41.0663 17.3886 40.532C17.3886 40.5631 17.0414 40.1517 17.7667 39.8338C18.1201 39.9585 18.2874 39.0047 18.3866 38.4686C18.3866 38.1569 18.6284 38.3065 18.6594 37.9761C18.9693 37.5465 19.2157 37.0741 19.3909 36.5735C19.4963 36.5735 19.5087 36.0873 19.5831 36.1559C19.3847 35.9813 19.7504 35.7818 19.7071 35.6322C19.7752 35.3704 19.7504 35.1335 19.862 35.1584C19.9736 34.6473 20.2898 34.8717 20.358 34.9153C20.4261 34.959 20.7175 34.8717 20.7423 35.2457C20.5997 35.439 21.2134 35.6135 21.1638 35.732C21.1638 35.6447 24.1146 39.1605 24.9329 39.84C24.9701 39.8712 27.27 42.1652 27.1708 42.1403C27.425 42.2774 27.6357 42.7636 27.6543 42.7075C27.5552 42.8572 28.0945 43.1003 28.1875 43.1003C28.5346 43.7236 28.5532 43.5865 28.7392 43.4805C28.8012 43.7548 29.2599 43.6239 29.4273 43.7112C29.3777 43.5803 29.793 43.4618 29.7001 43.3185C29.8302 43.3621 29.6195 42.8197 29.7001 42.8883C29.5575 42.6265 28.6834 41.4608 28.7454 41.2488C28.7454 41.1803 28.8694 41.2052 28.9314 41.2488C28.9934 41.2925 28.8198 41.1117 28.764 41.0618C28.9252 41.0618 28.9562 40.9746 28.8694 40.8062C28.7144 40.8873 28.4974 39.8961 28.6338 39.7527C28.6896 39.5034 27.9209 36.3865 27.5614 36.081C27.5418 35.7914 27.4898 35.5049 27.4064 35.227C26.7865 34.8468 27.3072 34.0987 26.8918 33.9803C26.7927 34.1673 26.3649 33.4566 26.3029 32.8707C26.0984 32.5029 26.3029 31.6239 26.1665 31.7548C26.0488 31.6177 26.7865 31.2997 26.9724 31.7049C28.5346 32.3283 31.5164 31.3185 32.5951 32.1538C32.8492 31.6738 33.4257 32.0478 33.1158 31.9605C33.0724 32.0166 33.1716 32.0478 33.2398 32.0665C33.6503 31.9994 34.069 31.9994 34.4796 32.0665C34.0208 31.9543 35.1553 32.0291 35.0995 32.0104C35.8302 31.9445 36.5404 31.7326 37.1886 31.387C37.6535 31.2436 37.5668 31.0005 37.7651 30.5579C37.6845 30.932 37.8829 30.1777 37.4924 29.9346C35.2111 29.361 33.3947 27.6655 31.1197 27.067C30.2394 26.88 28.8136 24.7107 28.0573 24.8478C29.4335 23.2644 30.7725 21.6935 32.1921 20.3533C32.4711 20.079 35.2917 16.9933 35.2917 17.0307C35.4033 16.8748 35.5582 16.3636 35.5458 16.5818C35.5437 16.4789 35.5065 16.3799 35.4405 16.3013C35.4405 16.3387 34.3742 15.5034 34.0952 16.027C34.4734 16.2577 33.3389 16.3387 33.06 16.4073C33.0251 16.4239 32.987 16.4325 32.9484 16.4325C32.9098 16.4325 32.8717 16.4239 32.8368 16.4073C32.5517 16.3387 32.1797 16.6629 31.9937 16.7065C31.5784 16.3325 30.5307 17.0244 30.0596 17.1865C29.8688 17.18 29.6784 17.1634 29.4893 17.1366C29.3281 17.3985 29.3343 17.3236 29.3715 17.2987C29.1234 17.4656 28.8518 17.5937 28.5656 17.679C28.6276 17.679 28.2123 17.8785 28.0511 17.8411C28.0511 17.9096 27.9891 18.1091 27.7473 18.0592C27.5056 18.0094 27.5861 17.9408 27.518 18.0156" fill="white"/>
</g>
<defs>
<clipPath id="clip0_70_743">
<rect width="204.571" height="48" fill="white"/>
</clipPath>
</defs>
</svg>
