<svg width="32" height="32" viewBox="0 0 32 32" fill="none" xmlns="http://www.w3.org/2000/svg">
<path d="M10.6667 4C6.98958 4 4 6.98958 4 10.6667V21.3333C4 25.0104 6.98958 28 10.6667 28H21.3333C25.0104 28 28 25.0104 28 21.3333V10.6667C28 6.98958 25.0104 4 21.3333 4H10.6667ZM10.6667 6.66667H21.3333C23.5365 6.66667 25.3333 8.46354 25.3333 10.6667V21.3333C25.3333 23.5365 23.5365 25.3333 21.3333 25.3333H10.6667C8.46354 25.3333 6.66667 23.5365 6.66667 21.3333V10.6667C6.66667 8.46354 8.46354 6.66667 10.6667 6.66667ZM22.6667 8C21.9323 8 21.3333 8.59896 21.3333 9.33333C21.3333 10.0677 21.9323 10.6667 22.6667 10.6667C23.401 10.6667 24 10.0677 24 9.33333C24 8.59896 23.401 8 22.6667 8ZM16 9.33333C12.3229 9.33333 9.33333 12.3229 9.33333 16C9.33333 19.6771 12.3229 22.6667 16 22.6667C19.6771 22.6667 22.6667 19.6771 22.6667 16C22.6667 12.3229 19.6771 9.33333 16 9.33333ZM16 12C18.2031 12 20 13.7969 20 16C20 18.2031 18.2031 20 16 20C13.7969 20 12 18.2031 12 16C12 13.7969 13.7969 12 16 12Z" fill="black"/>
</svg>
