<svg width="32" height="32" viewBox="0 0 32 32" fill="none" xmlns="http://www.w3.org/2000/svg">
<path d="M25.3333 4H6.66667C5.19271 4 4 5.19271 4 6.66667V25.3333C4 26.8073 5.19271 28 6.66667 28H25.3333C26.8073 28 28 26.8073 28 25.3333V6.66667C28 5.19271 26.8073 4 25.3333 4ZM10.3177 22.6667C9.38542 22.6667 8.63542 21.9115 8.63542 20.9844V15.0156C8.63542 14.0885 9.39062 13.3333 10.3177 13.3333C11.2448 13.3333 12 14.0885 12 15.0156V20.9844C12 21.9115 11.2448 22.6667 10.3177 22.6667ZM10.2604 11.625C9.22917 11.625 8.54167 10.9375 8.54167 10.0208C8.54167 9.10938 9.22917 8.42187 10.3698 8.42187C11.401 8.42187 12.0885 9.10938 12.0885 10.0208C12.0885 10.9375 11.401 11.625 10.2604 11.625ZM22.3698 22.6667C21.474 22.6667 20.7448 21.9375 20.7448 21.0365V17.5677C20.7448 16.1563 19.875 16 19.5521 16C19.224 16 18.1406 16.0469 18.1406 17.5677V21.0365C18.1406 21.9375 17.4115 22.6667 16.5104 22.6667H16.4063C15.5052 22.6667 14.776 21.9375 14.776 21.0365V15.0156C14.776 14.0885 15.5313 13.3333 16.4583 13.3333C17.3854 13.3333 18.1406 14.0885 18.1406 15.0156C18.1406 15.0156 18.5156 13.3333 21.0729 13.3333C22.6979 13.3333 24 14.6354 24 17.5677V21.0365C24 21.9375 23.2708 22.6667 22.3698 22.6667Z" fill="black"/>
</svg>
