<svg width="226" height="108" viewBox="0 0 226 108" fill="none" xmlns="http://www.w3.org/2000/svg">
<g clip-path="url(#clip0_38_12069)">
<rect width="225" height="107.902" transform="translate(0.5)" fill="white"/>
<path d="M38.5789 22.4201H35.3376L38.1719 18.6531H42.0188L44.8556 22.4201H41.6167L40.0978 20.3924L38.5813 22.4201M37.9467 36.9816V23.8396H42.249V36.9816H37.9467Z" fill="#FF0000"/>
<path d="M44.342 18.9026H48.6492V36.9816H44.342V18.9026Z" fill="#FF0000"/>
<path d="M54.0902 31.4608C54.1653 33.2582 55.2045 34.4477 57.0311 34.4477C58.063 34.4477 59.0781 33.9656 59.4826 33.0015H63.5112C62.7263 36.0417 59.9114 37.3571 56.9753 37.3571C52.6997 37.3571 49.7878 34.7747 49.7878 30.3706C49.7878 26.3445 53.0025 23.4569 56.876 23.4569C61.5853 23.4569 63.94 27.0034 63.7389 31.4583H54.0902M59.4317 29.0577C59.3566 27.5799 58.315 26.3687 56.8736 26.3687C55.3571 26.3687 54.3445 27.4564 54.0877 29.0577H59.4293H59.4317Z" fill="#FF0000"/>
<path d="M74.1846 36.9816H72.4864V35.5862H72.4452C71.888 36.7224 70.5678 37.219 69.1531 37.219C65.9772 37.219 64.4026 34.702 64.4026 31.7902C64.4026 28.8784 65.9602 26.4196 69.1143 26.4196C70.1705 26.4196 71.687 26.8169 72.4452 28.0354H72.4864V22.7277H74.1846V36.9792M69.3905 35.7195C71.6676 35.7195 72.547 33.7645 72.547 31.8314C72.547 29.7917 71.6264 27.9191 69.296 27.9191C66.9656 27.9191 66.2001 29.8934 66.2001 31.9113C66.2001 33.9293 67.2006 35.7219 69.3929 35.7219L69.3905 35.7195Z" fill="#FF0000"/>
<path d="M84.6036 33.7064C84.1433 35.9811 82.5082 37.219 80.1898 37.219C76.8977 37.219 75.3376 34.9443 75.2407 31.7902C75.2407 28.6943 77.278 26.4196 80.093 26.4196C83.7436 26.4196 84.8628 29.8328 84.7611 32.3304H77.0382C76.9776 34.1279 77.9999 35.7195 80.2504 35.7195C81.6482 35.7195 82.6269 35.0388 82.9273 33.7064H84.606M82.966 30.8309C82.8885 29.2127 81.6724 27.9191 79.9936 27.9191C78.2155 27.9191 77.1593 29.2539 77.0406 30.8309H82.966Z" fill="#FF0000"/>
<path d="M85.8633 18.9026H99.1772V22.6744H90.5677V26.3711H98.012V30.0145H90.5677V36.9816H85.8633V18.9026Z" fill="#FF0000"/>
<path d="M100.037 23.8396H104.216V26.1434H104.262C104.899 24.4719 106.362 23.5829 108.213 23.5829C108.54 23.5829 108.894 23.6143 109.226 23.6894V27.6114C108.669 27.4588 108.165 27.3571 107.579 27.3571C105.452 27.3571 104.335 28.8275 104.335 30.4748V36.9816H100.035V23.8396H100.037Z" fill="#FF0000"/>
<path d="M109.228 27.8876C109.303 26.1701 110.115 25.0533 111.275 24.3702C112.441 23.7137 113.959 23.4593 115.456 23.4593C118.567 23.4593 121.583 24.1449 121.583 27.8658V33.6119C121.583 34.7263 121.583 35.9399 122.092 36.9816H117.76C117.61 36.5746 117.559 36.1725 117.508 35.7413C116.394 36.9041 114.749 37.3595 113.177 37.3595C110.672 37.3595 108.7 36.0974 108.7 33.3842C108.7 29.1085 113.359 29.438 116.343 28.8275C117.08 28.6749 117.484 28.423 117.484 27.6114C117.484 26.6255 116.297 26.2452 115.408 26.2452C114.216 26.2452 113.46 26.7781 113.254 27.8876H109.231M114.8 34.6996C116.847 34.6996 117.533 33.5368 117.431 30.8285C116.825 31.204 115.711 31.2839 114.773 31.5359C113.812 31.7611 113.003 32.1681 113.003 33.2074C113.003 34.2466 113.836 34.6996 114.8 34.6996Z" fill="#FF0000"/>
<path d="M123.15 23.8396H127.329V25.6371H127.38C128.165 24.2951 129.936 23.4593 131.505 23.4593C135.888 23.4593 136.241 26.6497 136.241 28.5514V36.9816H131.939V30.6274C131.939 28.8275 132.14 27.0058 129.785 27.0058C128.165 27.0058 127.457 28.3697 127.457 29.8135V36.9792H123.153V23.8372L123.15 23.8396Z" fill="#FF0000"/>
<path d="M146.394 28.6531C146.367 27.5388 145.379 26.7539 144.294 26.7539C141.888 26.7539 141.508 28.8033 141.508 30.6274C141.508 32.3232 142.242 34.0673 144.066 34.0673C145.558 34.0673 146.324 33.2074 146.52 31.8169H150.699C150.318 35.3319 147.586 37.3571 144.09 37.3571C140.142 37.3571 137.201 34.6487 137.201 30.625C137.201 26.6013 139.861 23.4569 144.09 23.4569C147.358 23.4569 150.27 25.1793 150.575 28.6507H146.396L146.394 28.6531Z" fill="#FF0000"/>
<path d="M155.258 31.4608C155.333 33.2582 156.37 34.4477 158.194 34.4477C159.228 34.4477 160.246 33.9656 160.648 33.0015H164.676C163.892 36.0417 161.079 37.3571 158.143 37.3571C153.865 37.3571 150.953 34.7747 150.953 30.3706C150.953 26.3445 154.17 23.4569 158.039 23.4569C162.751 23.4569 165.105 27.0034 164.904 31.4583H155.26M160.602 29.0577C160.527 27.5799 159.488 26.3687 158.041 26.3687C156.595 26.3687 155.515 27.4564 155.26 29.0577H160.602Z" fill="#FF0000"/>
<path d="M37.9443 0.36821H45.2045C48.0994 0.36821 49.8944 1.94524 49.8944 4.40891C49.8944 6.26695 49.0732 7.8028 47.2151 8.32121V8.36482C49.0078 8.71123 49.376 10.0291 49.5286 11.5431C49.657 13.0547 49.5722 14.7408 50.437 15.7994H48.1454C47.5616 15.172 47.8862 13.5077 47.5834 11.9961C47.3678 10.4821 46.9996 9.20784 45.0107 9.20784H39.9962V15.7994H37.9419V0.36821H37.9443ZM44.2767 7.47819C46.2001 7.47819 47.8426 6.98158 47.8426 4.73352C47.8426 3.21947 47.0214 2.09786 45.0979 2.09786H39.9986V7.47819H44.2767Z" fill="#2A327B"/>
<path d="M61.9777 12.2529C61.4811 14.7166 59.7078 16.0562 57.2006 16.0562C53.6347 16.0562 51.9486 13.5925 51.842 10.1768C51.842 6.82655 54.0465 4.36289 57.094 4.36289C61.0499 4.36289 62.2587 8.05717 62.1521 10.7607H53.7873C53.7219 12.7059 54.8241 14.4356 57.266 14.4356C58.7776 14.4356 59.8386 13.7016 60.1608 12.2529H61.9753H61.9777ZM60.2044 9.14002C60.1172 7.39099 58.7994 5.98595 56.985 5.98595C55.0615 5.98595 53.9157 7.43459 53.7873 9.14002H60.2069H60.2044ZM57.4186 0H59.7732L56.9414 3.09109H55.5581L57.4162 0H57.4186Z" fill="#2A327B"/>
<path d="M73.6929 14.8474C73.6929 18.4787 72.0287 20.3367 68.5064 20.3367C66.4109 20.3367 63.9885 19.4937 63.8819 17.0518H65.7181C65.8053 18.3915 67.4042 18.8663 68.613 18.8663C71.0112 18.8663 71.9633 17.1366 71.9633 14.6294V13.8953H71.9197C71.314 15.2568 69.846 15.9278 68.441 15.9278C65.1125 15.9278 63.4482 13.3115 63.4482 10.2665C63.4482 7.63081 64.7443 4.36531 68.613 4.36531C70.018 4.36531 71.2704 4.99273 71.9415 6.22335H71.9633V4.62452H73.6929V14.8474ZM71.8785 9.98547C71.8785 8.01841 71.0136 5.98837 68.7026 5.98837C66.3916 5.98837 65.3959 7.91182 65.3959 10.0509C65.3959 12.0615 66.1299 14.3096 68.55 14.3096C70.97 14.3096 71.8785 12.0833 71.8785 9.98789V9.98547Z" fill="#2A327B"/>
<path d="M78.4046 2.61627H76.5684V0.36821H78.4046V2.61627ZM76.5684 4.62693H78.4046V15.7994H76.5684V4.62451V4.62693Z" fill="#2A327B"/>
<path d="M86.0765 4.36531C89.6206 4.36531 91.5005 6.93799 91.5005 10.2229C91.5005 13.5078 89.6206 16.0586 86.0765 16.0586C82.5324 16.0586 80.6526 13.486 80.6526 10.2229C80.6526 6.95979 82.5324 4.36531 86.0765 4.36531ZM86.0765 14.4356C88 14.4356 89.5552 12.9239 89.5552 10.2204C89.5552 7.51696 88 5.98595 86.0765 5.98595C84.1531 5.98595 82.5978 7.5 82.5978 10.2204C82.5978 12.9409 84.1531 14.4356 86.0765 14.4356Z" fill="#2A327B"/>
<path d="M93.6638 4.62451H95.3935V6.39535H95.4371C96.2147 5.01211 97.4695 4.36288 99.0684 4.36288C102.007 4.36288 102.915 6.04893 102.915 8.44719V15.7946H101.079V8.23159C101.079 6.87015 100.214 5.98352 98.8092 5.98352C96.5829 5.98352 95.5025 7.47577 95.5025 9.48401V15.7946H93.6662V4.62451H93.6638Z" fill="#2A327B"/>
<path d="M23.5741 13.6386C23.4772 13.6749 23.1259 13.7815 23.155 13.796C23.1259 13.7815 23.1041 13.7766 23.1065 13.7524C23.1453 13.6192 22.53 14.1909 22.5009 13.9704C22.484 13.9341 22.53 13.9801 22.4428 13.9559C22.6681 13.9874 21.0644 14.4937 21.0644 14.467C20.9869 14.2999 21.0038 14.1376 21.108 13.985C21.234 13.6676 20.8343 13.2146 20.9844 13.3479C20.8754 13.2389 20.8754 13.1347 20.9796 13.0232C21.0474 13.0741 20.9844 13.0087 21.0208 12.8658C21.0644 12.8367 20.9384 12.6623 21.0547 12.7253C21.1564 12.6962 21.3212 12.1294 21.2025 11.7248C20.9384 11.1143 21.0499 6.69815 21.1831 6.86773C21.2291 6.56249 20.9481 6.3372 21.0838 6.11191C21.0935 5.87935 20.873 5.87209 20.9021 5.71463C20.7834 5.24951 20.1269 5.25678 20.1996 5.15746C19.8531 5.23497 18.5741 7.29166 18.562 7.34253C18.6395 7.26744 17.6971 8.68459 17.7165 8.68943C17.6124 8.66521 17.4961 8.84932 17.4718 9.06249C17.4622 9.08914 16.9365 9.73837 16.9922 9.60997C16.8129 9.91278 16.5998 10.2011 16.4326 10.5087C16.561 10.4264 16.2 10.7582 16.2533 10.7485C16.2606 10.7122 15.8464 11.7466 15.8415 11.657C15.8803 11.5165 15.3304 12.1657 15.2747 12.1705C15.1584 12.6429 13.4142 11.4898 13.3803 10.9617C13.3851 10.9423 13.3439 10.4724 13.109 10.4167C13.2131 10.5087 11.8687 9.28294 11.9704 9.37984C11.2679 8.44476 10.7156 8.47141 9.67388 7.56056C9.68115 7.54602 9.43164 6.96947 9.2548 6.76598C8.86235 6.86288 8.33183 7.47092 8.44326 7.62112C8.27611 7.69137 8.24462 7.48061 8.17679 7.40794C8.1235 7.63808 8.34879 8.96559 8.34879 8.96559C8.32456 9.15697 8.43842 10.1429 8.48202 9.99515L8.55712 10.0799C8.55712 10.0799 8.43842 10.2277 8.58377 10.3222C8.74365 10.6032 9.06584 10.8018 8.95199 11.1943C8.81148 11.2645 8.96894 11.7805 8.94472 11.6134C8.78483 12.4273 10.6962 13.9559 10.4321 15.0436C10.311 15.1405 10.7979 15.7195 10.6962 15.6928C10.529 15.8866 10.0373 16.0102 9.69326 16.1022C9.59152 16.1604 9.48735 16.1095 9.38076 16.0756C9.2766 16.0562 8.40935 15.7025 8.1671 15.8648C8.15741 15.889 7.44763 15.7001 7.4452 15.7316C7.57359 15.5862 6.63367 15.9302 6.77418 15.625C6.83474 15.3876 5.9578 15.8745 6.1734 15.7461C6.15887 15.7558 5.79065 15.9617 5.80034 15.9012C5.82941 15.8188 5.46604 15.8915 5.5484 15.9108C5.49268 15.8963 5.12204 15.7897 5.17534 15.8261C4.96943 15.6904 4.92582 15.8745 4.68115 15.7558C4.66662 15.7849 4.38803 15.8212 4.33716 15.8091C4.3202 15.8043 3.78726 15.8285 3.78726 15.8115C3.82844 15.7946 3.31972 15.9593 3.2858 15.8261C3.30518 15.8018 2.88367 16.1216 2.76497 15.9254C2.81826 15.7631 2.29016 16.0586 2.2078 16.0707C2.14239 16.0586 1.87834 15.9423 1.92921 16.0247C1.88561 16.0489 1.55615 16.4511 1.55615 16.4511C1.61914 16.4704 3.36575 17.781 3.09201 17.5751C3.09201 17.5751 3.28096 17.7326 3.73881 18.0063C3.66613 18.2025 4.41468 18.016 4.29113 18.4399C4.98638 18.0305 6.4108 19.9467 6.90983 19.6415C6.97282 19.6415 7.186 19.9758 7.25625 19.9491C7.14481 19.8522 7.6172 20.1066 7.46943 20.0945C7.53483 20.172 7.51061 20.1453 7.73832 20.3779C8.30761 20.3537 8.54985 20.8236 8.73881 20.9811C9.36381 22.1851 6.76933 23.3479 6.54404 23.9559C6.53435 23.9874 6.53435 24.0116 6.50044 24.0019C6.5295 24.031 6.13706 24.1715 6.09104 24.3629L5.70102 24.8692C5.3546 24.7699 4.47524 26.1676 4.11914 26.3469L3.27369 26.7369C3.27369 26.7369 3.15499 26.8532 3.07505 26.9695C2.99753 27.0906 2.88125 27.2311 2.79646 27.2626C2.72379 27.2917 2.19811 27.8101 2.19811 27.8101L2.0673 28.0572L2.27805 28.1516C2.27805 28.1516 2.14239 28.3115 2.12059 28.3818C2.09152 28.4399 2.01642 28.6143 2.17873 28.6531C2.3483 28.6919 2.4452 28.6919 2.48396 28.7718C2.5203 28.8517 3.20102 28.905 3.25673 28.8929C3.30761 28.876 3.64675 28.7258 3.64675 28.7258C3.97379 28.6216 5.04452 28.6386 5.16807 28.7452C5.14627 28.7403 6.7233 28.3576 6.76691 28.2292C6.81778 28.2364 7.73832 27.907 7.73832 27.907C7.99026 27.7883 8.56681 27.6962 8.7485 27.4855C8.57408 27.5194 9.48978 27.2045 9.74898 27.3304C9.82892 27.374 12.0406 26.9162 12.1157 26.6303C12.295 26.6497 12.3144 26.8144 12.3241 26.8241C12.2732 27.1172 12.3168 27.9288 12.2078 28.0693C12.2126 27.953 11.8977 28.28 12.0043 28.4545C12.2272 28.5247 12.2151 28.4448 12.3531 28.7694C12.2877 28.6216 12.3677 29.4259 12.3507 29.7141C12.358 29.8692 12.6075 30.3803 12.1957 30.5838C12.1957 30.5838 11.9631 31.0659 11.9534 31.0586C11.9849 30.8236 11.9849 31.1797 11.9389 31.1119C12.1472 31.0126 12.0843 31.6473 12.0382 31.7248C12.077 31.6255 11.9292 31.8459 11.9147 31.7708C11.5804 32.4249 12.2829 32.4976 11.8783 32.5727C12.0528 32.626 12.1424 33.4956 12.1327 33.3672C12.1715 33.6604 12.1472 33.9438 12.0576 34.22C11.9995 34.0383 11.9001 34.5543 11.9316 34.6948C11.9995 35.0218 11.8372 35.6395 12.1472 35.7825C12.0988 35.6541 12.3822 36.0828 12.3822 36.0828C13.1114 36.3905 13.2906 35.436 13.6153 35.2858C13.7267 35.2616 13.8527 34.8232 13.9568 34.8571C13.9665 34.8232 14.405 32.7277 14.7417 32.8343C14.7272 32.8343 15.3062 31.9743 15.4249 31.6061C15.42 31.6303 15.1463 31.3057 15.7277 31.0513C16.0111 31.1458 16.1419 30.3924 16.2146 29.9612C16.234 29.7141 16.4084 29.8353 16.4326 29.5736C16.4278 29.6463 16.9341 28.8009 17.0164 28.4545C17.0988 28.4593 17.1109 28.0717 17.169 28.125C17.0116 27.9893 17.3071 27.827 17.2684 27.7083C17.3217 27.5 17.3047 27.3135 17.3943 27.3304C17.4815 26.9234 17.7359 27.1003 17.7916 27.139C17.9127 27.2045 18.0799 27.1027 18.0993 27.4031C17.983 27.5533 18.4772 27.6962 18.4336 27.7907C18.419 27.718 20.7931 30.5184 21.4471 31.0538C21.4786 31.0828 23.3149 32.9045 23.2349 32.8876C23.4384 32.9918 23.608 33.3624 23.6225 33.3358C23.545 33.4545 23.9738 33.6483 24.0489 33.6483C24.3275 34.1352 24.342 34.0358 24.4898 33.9511C24.5382 34.1691 24.9089 34.0649 25.0421 34.1352C25.0009 34.031 25.3328 33.9389 25.2601 33.8227C25.3594 33.8566 25.1923 33.4278 25.2843 33.4787C25.1656 33.2752 24.4704 32.3474 24.5188 32.1778C24.5334 32.1197 24.6182 32.1415 24.669 32.1536C24.6593 32.0979 24.5794 32.0421 24.5334 32.0034C24.6618 32.001 24.6884 31.9331 24.6182 31.7975C24.4922 31.8653 24.3226 31.0756 24.4292 30.9641C24.4728 30.7631 23.8624 28.2849 23.5717 28.0426C23.591 27.9554 23.4723 27.4104 23.4481 27.3643C22.9685 27.0639 23.3657 26.4656 23.0339 26.3614C22.9563 26.5092 22.6124 25.9448 22.5615 25.4748C22.4016 25.1817 22.5615 24.484 22.4525 24.5882C22.358 24.4816 22.9515 24.2296 23.0968 24.5518C24.3468 25.0242 26.733 24.2393 27.5954 24.9079C27.7989 24.5228 28.2567 24.8232 28.0121 24.7505C27.9733 24.7965 28.0557 24.8207 28.1114 24.8353C27.9975 24.811 28.952 24.7505 29.0949 24.8256C28.7267 24.7359 29.6351 24.7941 29.5988 24.782C29.2766 24.7117 30.2432 24.8983 31.2727 24.2587C31.6434 24.1449 31.5755 23.9535 31.7306 23.5998C31.6676 23.9002 31.8275 23.297 31.515 23.1056C29.6908 22.6478 28.2374 21.3009 26.4205 20.8261C25.7156 20.6759 24.577 18.9511 23.9714 19.0601C25.0712 17.8028 26.1395 16.5528 27.2732 15.4845C27.4961 15.2713 29.7708 12.8149 29.7708 12.8464C29.8556 12.7229 29.9815 12.3135 29.9743 12.4903C29.9791 12.4322 29.95 12.3546 29.8895 12.265C29.8846 12.2965 29.0343 11.6303 28.8115 12.0446C29.1119 12.2311 28.2034 12.2965 27.983 12.3474C27.9152 12.3886 27.857 12.3716 27.8062 12.3595C27.5784 12.3038 27.2829 12.563 27.1303 12.5969C26.7984 12.2989 25.9651 12.8513 25.5847 12.9772C25.6162 12.9603 25.4224 13.0014 25.1269 12.9385C25.0009 13.1468 25.0033 13.0862 25.0348 13.0693C24.9234 13.1274 24.8313 13.2219 24.388 13.3745C24.4389 13.3939 24.107 13.532 23.9786 13.4981C23.9907 13.5562 23.9278 13.7137 23.734 13.6749C23.5862 13.6386 23.6056 13.5804 23.5523 13.6386" fill="#FF0000"/>
<path d="M225.485 58.2994H1.56104V59.4671H225.485V58.2994Z" fill="#D2D2D2"/>
<path d="M35.9796 87.5775L33.562 94.375C33.2591 95.2592 32.9999 96.1434 32.6777 97.0276H32.6123C32.3095 96.1434 32.0091 95.2592 31.7063 94.375L29.2669 87.5775H27.3047V100.308H28.7727V93.2946C28.7727 92.1948 28.6443 90.6613 28.5789 89.5179H28.6443L29.6593 92.4297L32.077 99.031H33.155L35.5508 92.4297L36.5658 89.5179H36.653C36.5658 90.6613 36.4374 92.1923 36.4374 93.2946V100.308H37.9466V87.5775H35.9844H35.9796Z" fill="#2A327B"/>
<path d="M44.5019 87.6841C42.0431 87.6841 40.5315 89.9273 40.5315 94.0698C40.5315 98.2122 42.0431 100.543 44.5019 100.543C46.9608 100.543 48.4724 98.234 48.4724 94.0698C48.4724 89.9055 46.9826 87.6841 44.5019 87.6841ZM44.5019 99.2708C43.0775 99.2708 42.0843 97.718 42.0843 94.0698C42.0843 90.4215 43.0775 88.9777 44.5019 88.9777C45.9264 88.9777 46.9196 90.4457 46.9196 94.0698C46.9196 97.6938 45.9482 99.2708 44.5019 99.2708Z" fill="#2A327B"/>
<path d="M58.6128 87.5775V94.1594C58.6128 95.4966 58.7412 96.9428 58.8284 98.2146H58.7412L57.3604 95.5814L52.7431 87.5775H51.0813V100.308H52.6123V93.641C52.6123 92.3038 52.4839 90.9666 52.3967 89.6705H52.4839L53.8647 92.3038L58.482 100.308H60.1438V87.5775H58.6128Z" fill="#2A327B"/>
<path d="M106.658 83.1977L98.0048 97.5679L89.2887 83.1977H86.6772L96.7305 99.7675L96.2339 100.608C95.5217 101.773 94.9185 102.679 94.4001 103.37C93.8817 104.06 93.3633 104.579 92.8473 104.944C92.3289 105.288 91.7475 105.506 91.0571 105.635C90.3667 105.744 89.5261 105.807 88.4893 105.807H87.3241V107.9H88.4239C89.7393 107.9 90.8197 107.834 91.7039 107.684C92.5663 107.556 93.3439 107.253 94.0125 106.8C94.6811 106.347 95.3497 105.657 96.0401 104.772C96.7087 103.866 97.4864 102.679 98.3924 101.17L109.245 83.1977H106.655H106.658Z" fill="#FF0000"/>
<path d="M130.759 93.251C130.241 95.1938 129.291 96.6158 127.847 97.5024C126.423 98.3648 124.567 98.796 122.302 98.796C119.369 98.796 117.145 98.234 115.57 97.0688C114.017 95.9036 113.24 94.1352 113.24 91.7611C113.24 90.0993 113.627 88.7185 114.427 87.6405C115.226 86.5625 116.304 85.7631 117.685 85.2447C118.354 84.9855 119.088 84.7917 119.844 84.6633C120.621 84.5349 121.44 84.4477 122.302 84.4477C124.502 84.4477 126.379 84.9225 127.869 85.8503C129.378 86.7781 130.328 88.2025 130.718 90.1017H133.242C132.789 87.6211 131.58 85.7001 129.64 84.4065C127.678 83.0911 125.238 82.4443 122.261 82.4443C120.103 82.4443 118.141 82.7883 116.413 83.5005C114.686 84.2345 113.305 85.2689 112.293 86.6715C111.796 87.3401 111.43 88.1177 111.171 88.9801C110.912 89.8207 110.783 90.7703 110.783 91.7636C110.783 94.6972 111.755 96.9428 113.676 98.5174C115.597 100.07 118.465 100.87 122.264 100.87C124.206 100.87 125.931 100.589 127.484 100.051C129.015 99.5107 130.289 98.6701 131.302 97.5484C131.798 96.9864 132.23 96.3396 132.554 95.6274C132.879 94.9152 133.136 94.1182 133.288 93.2534H130.764L130.759 93.251Z" fill="#FF0000"/>
<path d="M153.07 72.7762L147.763 79.2927H149.943L155.832 72.7762H153.07ZM159.63 91.5044C159.63 89.6706 159.199 88.0741 158.337 86.7151C157.474 85.3561 156.222 84.2975 154.582 83.5441C153.783 83.2001 152.877 82.9191 151.908 82.7253C150.914 82.5315 149.836 82.4443 148.693 82.4443C146.45 82.4443 144.463 82.8101 142.738 83.5659C141.011 84.3217 139.674 85.3997 138.703 86.7805C138.228 87.4928 137.862 88.2704 137.625 89.0892C137.365 89.9298 137.259 90.8358 137.259 91.829C137.259 94.6996 138.187 96.921 140.086 98.4957C141.963 100.07 144.768 100.87 148.499 100.87C151.067 100.87 153.288 100.482 155.144 99.7045C156.978 98.9269 158.359 97.5897 159.243 95.6904H156.61V95.734C155.963 96.7902 154.991 97.5896 153.698 98.1081C152.404 98.6483 150.721 98.9075 148.671 98.9075C145.866 98.9075 143.707 98.3891 142.155 97.3547C140.624 96.3178 139.737 94.7432 139.543 92.6502H159.63V91.5068V91.5044ZM139.587 90.8358C139.737 89.3896 140.234 88.1832 141.033 87.2335C141.852 86.2621 142.932 85.5499 144.269 85.0751C144.916 84.8377 145.628 84.6657 146.384 84.5567C147.118 84.4283 147.893 84.3629 148.737 84.3629C151.326 84.3629 153.376 84.9249 154.863 86.0247C156.353 87.1027 157.172 88.7209 157.302 90.8358H139.589H139.587Z" fill="#FF0000"/>
<path d="M185.907 91.5044C185.907 89.6705 185.476 88.0741 184.613 86.7151C183.751 85.3561 182.499 84.2975 180.859 83.5441C180.062 83.2001 179.153 82.9191 178.184 82.7253C177.191 82.5315 176.113 82.4443 174.969 82.4443C172.726 82.4443 170.74 82.8101 169.015 83.5659C167.288 84.3217 165.951 85.3997 164.979 86.7805C164.504 87.4927 164.139 88.2703 163.879 89.0891C163.642 89.9297 163.533 90.8358 163.533 91.829C163.533 94.6996 164.461 96.921 166.36 98.4956C168.237 100.07 171.043 100.87 174.754 100.87C177.344 100.87 179.565 100.482 181.399 99.7045C183.254 98.9268 184.635 97.5896 185.519 95.6904H182.886V95.734C182.239 96.7902 181.268 97.5896 179.974 98.108C178.681 98.6483 176.997 98.9075 174.948 98.9075C172.142 98.9075 169.984 98.389 168.431 97.3546C166.9 96.3178 166.016 94.7432 165.82 92.6502H185.907V91.5068V91.5044ZM165.842 90.8358C166.014 89.3895 166.51 88.1831 167.31 87.2335C168.131 86.2621 169.209 85.5499 170.524 85.0751C171.193 84.8377 171.905 84.6657 172.661 84.5567C173.395 84.4283 174.172 84.3629 175.013 84.3629C177.603 84.3629 179.652 84.9249 181.142 86.0247C182.632 87.1027 183.451 88.7209 183.579 90.8358H165.844H165.842Z" fill="#FF0000"/>
<path d="M190.977 98.7548C190.827 98.5828 190.59 98.4956 190.287 98.4956C189.984 98.4956 189.768 98.561 189.596 98.733C189.446 98.8832 189.381 99.1424 189.381 99.5107C189.381 99.8546 189.446 100.114 189.596 100.266C189.747 100.417 189.984 100.504 190.287 100.504C190.59 100.504 190.827 100.417 190.977 100.245C191.127 100.073 191.193 99.8353 191.193 99.5107C191.193 99.1667 191.127 98.9075 190.977 98.7548Z" fill="#2A327B"/>
<path d="M202.111 87.5775V94.1594C202.111 95.4966 202.239 96.9428 202.305 98.2146H202.239L200.859 95.5814L196.241 87.5775H194.58V100.308H196.111V93.641C196.111 92.3038 195.982 90.9666 195.895 89.6705H195.982L197.363 92.3038L201.98 100.308H203.642V87.5775H202.111Z" fill="#2A327B"/>
<path d="M208.756 98.9486V94.3096H213.589V92.9288H208.756V88.9365H214.473V87.5775H207.138V100.308H214.667V98.9486H208.756Z" fill="#2A327B"/>
<path d="M216.156 87.5775V88.9365H220.018V100.308H221.636V88.9365H225.498V87.5775H216.154H216.156Z" fill="#2A327B"/>
<path d="M67.4065 100.867V78.3164H69.9549V98.4787H86.6458V100.867H67.4065Z" fill="#FF0000"/>
<path d="M11.3406 103.835C17.3277 103.835 22.1812 98.9813 22.1812 92.9942C22.1812 87.0071 17.3277 82.1536 11.3406 82.1536C5.3535 82.1536 0.5 87.0071 0.5 92.9942C0.5 98.9813 5.3535 103.835 11.3406 103.835Z" fill="#FF0000"/>
<path d="M11.2363 93.8881V87.345L4.45337 90.8018V97.8077H13.4359L20.2843 93.9535L11.2363 93.8881ZM5.31577 91.3275L10.3763 88.75V94.0528L5.31577 96.6667V91.3275ZM13.2106 96.9428H6.65783L10.9093 94.7456L17.0382 94.7893L13.2106 96.9428Z" fill="white"/>
</g>
<defs>
<clipPath id="clip0_38_12069">
<rect width="225" height="107.902" fill="white" transform="translate(0.5)"/>
</clipPath>
</defs>
</svg>
