<svg width="163" height="36" viewBox="0 0 163 36" fill="none" xmlns="http://www.w3.org/2000/svg">
<path fill-rule="evenodd" clip-rule="evenodd" d="M2.74143 0.000488281L0.000427246 3.64449H3.13543L4.60143 1.68249L6.07243 3.64449H9.20643L6.46343 0.000488281H2.74143ZM2.52143 17.7315H6.68443V5.01949H2.52143V17.7315Z" fill="black"/>
<path fill-rule="evenodd" clip-rule="evenodd" d="M8.711 17.7342H12.875V0.243164H8.711V17.7342Z" fill="black"/>
<path fill-rule="evenodd" clip-rule="evenodd" d="M23.3108 10.0684C23.2368 8.64037 22.2318 7.46837 20.8358 7.46837C19.3668 7.46837 18.3878 8.51837 18.1398 10.0684H23.3108ZM18.1398 12.3924C18.2138 14.1314 19.2168 15.2824 20.9838 15.2824C21.9828 15.2824 22.9668 14.8164 23.3588 13.8814H27.2548C26.4958 16.8234 23.7728 18.0984 20.9328 18.0984C16.7928 18.0984 13.9778 15.6004 13.9778 11.3394C13.9778 7.44637 17.0898 4.65137 20.8358 4.65137C25.3928 4.65137 27.6698 8.08237 27.4778 12.3924H18.1398Z" fill="black"/>
<path fill-rule="evenodd" clip-rule="evenodd" d="M32.9461 16.5138C35.1491 16.5138 35.9971 14.6218 35.9971 12.7498C35.9971 10.7758 35.1081 8.96685 32.8511 8.96685C30.6111 8.96685 29.8581 10.8768 29.8581 12.8278C29.8581 14.6968 30.8251 16.5138 32.9461 16.5138ZM37.5831 17.7338H35.9411V16.3818H35.9021C35.3631 17.4818 34.0871 17.9618 32.7171 17.9618C29.6441 17.9618 28.1191 15.5268 28.1191 12.7078C28.1191 9.89085 29.6251 7.51485 32.6801 7.51485C33.6991 7.51485 35.1681 7.90085 35.9021 9.07685H35.9411V3.94385H37.5831V17.7338Z" fill="black"/>
<path fill-rule="evenodd" clip-rule="evenodd" d="M46.0755 11.7846C45.9995 10.2196 44.8255 8.9676 43.2005 8.9676C41.4835 8.9676 40.4605 10.2566 40.3455 11.7846H46.0755ZM47.6615 14.5646C47.2185 16.7656 45.6345 17.9646 43.3955 17.9646C40.2065 17.9646 38.7005 15.7636 38.6025 12.7106C38.6025 9.7156 40.5745 7.5166 43.2965 7.5166C46.8285 7.5166 47.9115 10.8166 47.8145 13.2346H40.3435C40.2855 14.9756 41.2715 16.5136 43.4495 16.5136C44.8025 16.5136 45.7455 15.8536 46.0365 14.5646H47.6615Z" fill="black"/>
<path fill-rule="evenodd" clip-rule="evenodd" d="M48.8806 0.243164H61.7646V3.89217H53.4356V7.46917H60.6386V10.9942H53.4356V17.7332H48.8806V0.243164Z" fill="black"/>
<path fill-rule="evenodd" clip-rule="evenodd" d="M62.596 5.01851H66.639V7.24751H66.686C67.301 5.63051 68.718 4.77051 70.511 4.77051C70.826 4.77051 71.167 4.80151 71.489 4.87351V8.66651C70.948 8.51851 70.461 8.42151 69.894 8.42151C67.837 8.42151 66.754 9.84251 66.754 11.4376V17.7336H62.594V5.01851H62.596Z" fill="black"/>
<path fill-rule="evenodd" clip-rule="evenodd" d="M76.8763 15.5264C78.8563 15.5264 79.5183 14.3994 79.4213 11.7784C78.8343 12.1434 77.7573 12.2214 76.8493 12.4634C75.9213 12.6814 75.1353 13.0754 75.1353 14.0804C75.1353 15.1074 75.9413 15.5264 76.8763 15.5264ZM71.4883 8.93537C71.5603 7.27537 72.3463 6.19437 73.4683 5.53037C74.5953 4.89837 76.0633 4.65137 77.5113 4.65137C80.5233 4.65137 83.4413 5.31537 83.4413 8.91537V14.4734C83.4413 15.5524 83.4413 16.7264 83.9333 17.7334H79.7413C79.5973 17.3374 79.5433 16.9494 79.4983 16.5324C78.4213 17.6574 76.8293 18.0984 75.3083 18.0984C72.8823 18.0984 70.9753 16.8754 70.9753 14.2514C70.9753 10.1134 75.4813 10.4324 78.3723 9.84237C79.0853 9.69637 79.4733 9.45337 79.4733 8.67037C79.4733 7.71437 78.3283 7.34737 77.4683 7.34737C76.3153 7.34737 75.5833 7.86337 75.3873 8.93537H71.4883Z" fill="black"/>
<path fill-rule="evenodd" clip-rule="evenodd" d="M84.9578 5.0189H89.0008V6.7569H89.0528C89.8098 5.4579 91.5218 4.6499 93.0398 4.6499C97.2788 4.6499 97.6238 7.7379 97.6238 9.5759V17.7319H93.4608V11.5839C93.4608 9.8429 93.6568 8.0819 91.3748 8.0819C89.8098 8.0819 89.1228 9.4019 89.1228 10.7979V17.7339H84.9558V5.0189H84.9578Z" fill="black"/>
<path fill-rule="evenodd" clip-rule="evenodd" d="M107.446 9.67434C107.419 8.59834 106.462 7.83634 105.414 7.83634C103.085 7.83634 102.72 9.81934 102.72 11.5843C102.72 13.2263 103.43 14.9113 105.196 14.9113C106.635 14.9113 107.378 14.0803 107.568 12.7373H111.611C111.243 16.1393 108.599 18.0963 105.216 18.0963C101.398 18.0963 98.5511 15.4773 98.5511 11.5843C98.5511 7.54334 101.126 4.65234 105.216 4.65234C108.378 4.65234 111.196 6.31934 111.491 9.67434H107.446Z" fill="black"/>
<path fill-rule="evenodd" clip-rule="evenodd" d="M121.188 10.0684C121.114 8.64037 120.109 7.46837 118.713 7.46837C117.242 7.46837 116.267 8.51837 116.019 10.0684H121.188ZM116.021 12.3924C116.095 14.1314 117.1 15.2824 118.863 15.2824C119.866 15.2824 120.846 14.8164 121.236 13.8814H125.134C124.371 16.8234 121.652 18.0984 118.81 18.0984C114.672 18.0984 111.855 15.6004 111.855 11.3394C111.855 7.44637 114.969 4.65137 118.713 4.65137C123.271 4.65137 125.547 8.08237 125.351 12.3924H116.021Z" fill="black"/>
<path fill-rule="evenodd" clip-rule="evenodd" d="M9.14191 25.9013C9.02191 25.7633 8.86391 25.6293 8.66591 25.4993C8.46791 25.3693 8.24291 25.2543 7.99591 25.1483C7.74791 25.0443 7.47491 24.9613 7.18391 24.8943C6.89191 24.8313 6.58591 24.7973 6.26891 24.7973C5.44391 24.7973 4.84091 24.9533 4.45991 25.2593C4.07791 25.5673 3.88591 25.9903 3.88591 26.5263C3.88591 26.8153 3.93991 27.0523 4.04891 27.2423C4.15891 27.4313 4.32991 27.5923 4.56291 27.7273C4.79591 27.8613 5.08691 27.9783 5.43391 28.0783C5.77991 28.1763 6.19191 28.2823 6.66891 28.3913C7.21591 28.5103 7.70791 28.6473 8.14991 28.8013C8.59091 28.9563 8.96891 29.1463 9.28291 29.3753C9.59591 29.6043 9.83291 29.8803 9.99791 30.2093C10.1609 30.5363 10.2439 30.9383 10.2439 31.4153C10.2439 31.9213 10.1439 32.3603 9.94691 32.7333C9.74791 33.1043 9.47791 33.4143 9.13591 33.6573C8.79291 33.9003 8.38891 34.0803 7.92291 34.1933C7.45691 34.3073 6.94991 34.3653 6.40491 34.3653C5.58991 34.3653 4.81891 34.2393 4.08791 33.9853C3.35791 33.7313 2.69591 33.3623 2.09991 32.8763L2.73991 31.7433C2.89791 31.9123 3.10391 32.0813 3.35791 32.2493C3.61191 32.4183 3.89891 32.5683 4.22291 32.7023C4.54391 32.8373 4.89291 32.9463 5.26391 33.0303C5.63791 33.1153 6.02491 33.1563 6.43391 33.1563C7.18891 33.1563 7.77491 33.0223 8.19091 32.7543C8.60791 32.4853 8.81591 32.0843 8.81591 31.5473C8.81591 31.2503 8.74991 30.9993 8.61591 30.7943C8.48191 30.5893 8.28591 30.4153 8.02791 30.2663C7.76991 30.1183 7.45091 29.9853 7.06691 29.8723C6.68491 29.7583 6.24991 29.6413 5.76391 29.5213C5.22691 29.3933 4.75491 29.2543 4.34891 29.1053C3.94191 28.9563 3.60091 28.7773 3.32791 28.5683C3.05491 28.3603 2.84891 28.1063 2.70791 27.8093C2.56991 27.5123 2.49991 27.1533 2.49991 26.7373C2.49991 26.2313 2.59491 25.7843 2.78291 25.3963C2.97091 25.0083 3.23391 24.6803 3.57291 24.4143C3.91091 24.1463 4.31091 23.9463 4.77991 23.8123C5.24591 23.6773 5.75291 23.6123 6.29791 23.6123C7.01391 23.6123 7.65691 23.7213 8.23491 23.9393C8.80991 24.1583 9.32191 24.4513 9.76891 24.8183L9.14191 25.9013Z" fill="black" fill-opacity="0.72"/>
<path fill-rule="evenodd" clip-rule="evenodd" d="M21.1453 34.2561V26.0811L17.6303 32.3501H16.8713L13.3413 26.0811V34.2561H12.0013V23.6821H13.4163L17.2423 30.5471L21.0853 23.6821H22.4833V34.2561H21.1453Z" fill="black" fill-opacity="0.72"/>
<path fill-rule="evenodd" clip-rule="evenodd" d="M30.7039 30.1166L28.7979 25.2316L26.8319 30.1166H30.7039ZM28.2329 23.6846H29.3649L33.6839 34.2586H32.2549L31.0049 31.1596H26.5679L25.3319 34.2586H23.9029L28.2329 23.6846Z" fill="black" fill-opacity="0.72"/>
<path fill-rule="evenodd" clip-rule="evenodd" d="M36.4383 29.2676H39.6393C39.9183 29.2676 40.1673 29.2076 40.3923 29.0886C40.6153 28.9686 40.8073 28.8076 40.9663 28.6036C41.1253 28.3996 41.2493 28.1636 41.3393 27.8966C41.4283 27.6276 41.4733 27.3496 41.4733 27.0626C41.4733 26.7656 41.4213 26.4856 41.3163 26.2216C41.2133 25.9586 41.0733 25.7246 40.9003 25.5226C40.7273 25.3176 40.5223 25.1596 40.2893 25.0456C40.0563 24.9316 39.8113 24.8736 39.5533 24.8736H36.4403V29.2676H36.4383ZM35.0973 34.2556V23.6816H39.6253C40.0913 23.6816 40.5203 23.7796 40.9123 23.9726C41.3043 24.1666 41.6423 24.4246 41.9253 24.7466C42.2083 25.0686 42.4283 25.4316 42.5873 25.8326C42.7463 26.2356 42.8263 26.6446 42.8263 27.0626C42.8263 27.4296 42.7753 27.7856 42.6693 28.1266C42.5643 28.4696 42.4163 28.7796 42.2223 29.0576C42.0283 29.3356 41.7953 29.5736 41.5223 29.7736C41.2503 29.9716 40.9453 30.1166 40.6073 30.2046L43.1693 34.2556H41.6503L39.2373 30.4576H36.4383V34.2556H35.0973Z" fill="black" fill-opacity="0.72"/>
<path fill-rule="evenodd" clip-rule="evenodd" d="M52.4163 24.8741H48.7673V34.2561H47.4263V24.8741H43.7773V23.6821H52.4143V24.8741H52.4163Z" fill="black" fill-opacity="0.72"/>
<path fill-rule="evenodd" clip-rule="evenodd" d="M63.4661 25.9013C63.3461 25.7633 63.1881 25.6293 62.9901 25.4993C62.7921 25.3693 62.5671 25.2543 62.3201 25.1483C62.0721 25.0443 61.7991 24.9613 61.5081 24.8943C61.2161 24.8313 60.9101 24.7973 60.5931 24.7973C59.7681 24.7973 59.1651 24.9533 58.7841 25.2593C58.4021 25.5673 58.2101 25.9903 58.2101 26.5263C58.2101 26.8153 58.2641 27.0523 58.3731 27.2423C58.4831 27.4313 58.6541 27.5923 58.8871 27.7273C59.1201 27.8613 59.4111 27.9783 59.7581 28.0783C60.1041 28.1763 60.5161 28.2823 60.9931 28.3913C61.5401 28.5103 62.0321 28.6473 62.4741 28.8013C62.9161 28.9563 63.2931 29.1463 63.6071 29.3753C63.9201 29.6043 64.1571 29.8803 64.3221 30.2093C64.4851 30.5363 64.5681 30.9383 64.5681 31.4153C64.5681 31.9213 64.4691 32.3603 64.2711 32.7333C64.0721 33.1043 63.8021 33.4143 63.4601 33.6573C63.1181 33.9003 62.7141 34.0803 62.2471 34.1933C61.7811 34.3073 61.2741 34.3653 60.7291 34.3653C59.9141 34.3653 59.1431 34.2393 58.4121 33.9853C57.6821 33.7313 57.0201 33.3623 56.4241 32.8763L57.0641 31.7433C57.2221 31.9123 57.4281 32.0813 57.6821 32.2493C57.9361 32.4183 58.2231 32.5683 58.5471 32.7023C58.8681 32.8373 59.2171 32.9463 59.5881 33.0303C59.9621 33.1153 60.3491 33.1563 60.7581 33.1563C61.5131 33.1563 62.0991 33.0223 62.5151 32.7543C62.9321 32.4853 63.1401 32.0843 63.1401 31.5473C63.1401 31.2503 63.0741 30.9993 62.9401 30.7943C62.8061 30.5893 62.6101 30.4153 62.3521 30.2663C62.0941 30.1183 61.7751 29.9853 61.3911 29.8723C61.0091 29.7583 60.5741 29.6413 60.0881 29.5213C59.5511 29.3933 59.0791 29.2543 58.6731 29.1053C58.2661 28.9563 57.9261 28.7773 57.6521 28.5683C57.3791 28.3603 57.1731 28.1063 57.0321 27.8093C56.8941 27.5123 56.8241 27.1533 56.8241 26.7373C56.8241 26.2313 56.9191 25.7843 57.1071 25.3963C57.2951 25.0083 57.5591 24.6803 57.8971 24.4143C58.2351 24.1463 58.6351 23.9463 59.1041 23.8123C59.5701 23.6773 60.0771 23.6123 60.6221 23.6123C61.3381 23.6123 61.9811 23.7213 62.5591 23.9393C63.1341 24.1583 63.6461 24.4513 64.0931 24.8183L63.4661 25.9013Z" fill="black" fill-opacity="0.72"/>
<path fill-rule="evenodd" clip-rule="evenodd" d="M73.5017 33.0656V34.2576H66.3227V23.6846H73.3677V24.8766H67.6637V28.3006H72.6227V29.4166H67.6637V33.0656H73.5017Z" fill="black" fill-opacity="0.72"/>
<path fill-rule="evenodd" clip-rule="evenodd" d="M76.6741 29.2676H79.8751C80.1541 29.2676 80.4031 29.2076 80.6281 29.0886C80.8511 28.9686 81.0431 28.8076 81.2021 28.6036C81.3611 28.3996 81.4841 28.1636 81.5751 27.8966C81.6641 27.6276 81.7091 27.3496 81.7091 27.0626C81.7091 26.7656 81.6571 26.4856 81.5521 26.2216C81.4491 25.9586 81.3091 25.7246 81.1351 25.5226C80.9631 25.3176 80.7581 25.1596 80.5251 25.0456C80.2921 24.9316 80.0471 24.8736 79.7891 24.8736H76.6761V29.2676H76.6741ZM75.3331 34.2556V23.6816H79.8611C80.3271 23.6816 80.7561 23.7796 81.1481 23.9726C81.5401 24.1666 81.8781 24.4246 82.1611 24.7466C82.4441 25.0686 82.6641 25.4316 82.8231 25.8326C82.9821 26.2356 83.0621 26.6446 83.0621 27.0626C83.0621 27.4296 83.0111 27.7856 82.9051 28.1266C82.8001 28.4696 82.6521 28.7796 82.4581 29.0576C82.2641 29.3356 82.0311 29.5736 81.7581 29.7736C81.4861 29.9716 81.1811 30.1166 80.8431 30.2046L83.4041 34.2556H81.8861L79.4731 30.4576H76.6741V34.2556H75.3331Z" fill="black" fill-opacity="0.72"/>
<path fill-rule="evenodd" clip-rule="evenodd" d="M85.1189 23.6846L88.6189 32.5746L92.1029 23.6846H93.5179L89.1989 34.2576H88.0379L83.7039 23.6846H85.1189Z" fill="black" fill-opacity="0.72"/>
<mask id="mask0_1171_4939" style="mask-type:alpha" maskUnits="userSpaceOnUse" x="0" y="0" width="163" height="36">
<path fill-rule="evenodd" clip-rule="evenodd" d="M0 35.4444H162.199V0.000488281H0V35.4444Z" fill="black"/>
</mask>
<g mask="url(#mask0_1171_4939)">
<path fill-rule="evenodd" clip-rule="evenodd" d="M94.946 34.2561H96.287V23.6821H94.946V34.2561Z" fill="black" fill-opacity="0.72"/>
<path fill-rule="evenodd" clip-rule="evenodd" d="M98.1326 28.8945C98.1326 28.2585 98.2436 27.6255 98.4666 26.9975C98.6896 26.3655 99.0176 25.8005 99.4486 25.2985C99.8796 24.7975 100.41 24.3935 101.035 24.0855C101.66 23.7795 102.37 23.6235 103.164 23.6235C104.107 23.6235 104.915 23.8385 105.592 24.2635C106.266 24.6905 106.768 25.2465 107.096 25.9325L106.037 26.6175C105.879 26.2795 105.687 25.9965 105.464 25.7695C105.241 25.5405 104.998 25.3575 104.734 25.2185C104.47 25.0815 104.199 24.9795 103.923 24.9215C103.645 24.8625 103.372 24.8325 103.104 24.8325C102.518 24.8325 102.001 24.9555 101.549 25.1985C101.097 25.4415 100.717 25.7585 100.41 26.1515C100.103 26.5425 99.8716 26.9845 99.7166 27.4755C99.5626 27.9665 99.4856 28.4605 99.4856 28.9565C99.4856 29.5135 99.5766 30.0405 99.7626 30.5425C99.9456 31.0435 100.202 31.4875 100.53 31.8745C100.858 32.2625 101.246 32.5705 101.691 32.7995C102.139 33.0285 102.624 33.1415 103.15 33.1415C103.428 33.1415 103.713 33.1065 104.006 33.0365C104.299 32.9665 104.579 32.8555 104.847 32.7025C105.115 32.5475 105.365 32.3555 105.6 32.1215C105.833 31.8875 106.025 31.6075 106.174 31.2795L107.29 31.8895C107.12 32.2885 106.885 32.6365 106.582 32.9395C106.279 33.2435 105.936 33.4985 105.555 33.7065C105.173 33.9155 104.769 34.0745 104.342 34.1835C103.915 34.2925 103.498 34.3465 103.092 34.3465C102.368 34.3465 101.702 34.1875 101.097 33.8705C100.491 33.5525 99.9686 33.1375 99.5256 32.6255C99.0836 32.1145 98.7406 31.5355 98.4976 30.8825C98.2546 30.2335 98.1326 29.5715 98.1326 28.8945Z" fill="black" fill-opacity="0.72"/>
<path fill-rule="evenodd" clip-rule="evenodd" d="M116.151 33.0656V34.2576H108.973V23.6846H116.017V24.8766H110.314V28.3006H115.273V29.4166H110.314V33.0656H116.151Z" fill="black" fill-opacity="0.72"/>
<path fill-rule="evenodd" clip-rule="evenodd" d="M124.193 25.9013C124.073 25.7633 123.915 25.6293 123.717 25.4993C123.519 25.3693 123.294 25.2543 123.047 25.1483C122.799 25.0443 122.526 24.9613 122.235 24.8943C121.943 24.8313 121.637 24.7973 121.32 24.7973C120.497 24.7973 119.892 24.9533 119.511 25.2593C119.129 25.5673 118.937 25.9903 118.937 26.5263C118.937 26.8153 118.991 27.0523 119.1 27.2423C119.21 27.4313 119.381 27.5923 119.614 27.7273C119.847 27.8613 120.138 27.9783 120.485 28.0783C120.831 28.1763 121.243 28.2823 121.72 28.3913C122.267 28.5103 122.759 28.6473 123.201 28.8013C123.642 28.9563 124.02 29.1463 124.334 29.3753C124.647 29.6043 124.884 29.8803 125.049 30.2093C125.212 30.5363 125.295 30.9383 125.295 31.4153C125.295 31.9213 125.195 32.3603 124.998 32.7333C124.799 33.1043 124.529 33.4143 124.187 33.6573C123.844 33.9003 123.44 34.0803 122.974 34.1933C122.508 34.3073 122.001 34.3653 121.456 34.3653C120.641 34.3653 119.87 34.2393 119.139 33.9853C118.409 33.7313 117.747 33.3623 117.151 32.8763L117.791 31.7433C117.949 31.9123 118.155 32.0813 118.409 32.2493C118.663 32.4183 118.95 32.5683 119.274 32.7023C119.595 32.8373 119.944 32.9463 120.315 33.0303C120.689 33.1153 121.076 33.1563 121.485 33.1563C122.24 33.1563 122.825 33.0223 123.242 32.7543C123.659 32.4853 123.867 32.0843 123.867 31.5473C123.867 31.2503 123.801 30.9993 123.667 30.7943C123.533 30.5893 123.337 30.4153 123.079 30.2663C122.821 30.1183 122.502 29.9853 122.118 29.8723C121.736 29.7583 121.301 29.6413 120.815 29.5213C120.278 29.3933 119.806 29.2543 119.4 29.1053C118.993 28.9563 118.652 28.7773 118.379 28.5683C118.106 28.3603 117.9 28.1063 117.759 27.8093C117.621 27.5123 117.551 27.1533 117.551 26.7373C117.551 26.2313 117.646 25.7843 117.834 25.3963C118.022 25.0083 118.285 24.6803 118.624 24.4143C118.962 24.1463 119.362 23.9463 119.831 23.8123C120.297 23.6773 120.804 23.6123 121.349 23.6123C122.065 23.6123 122.708 23.7213 123.286 23.9393C123.861 24.1583 124.373 24.4513 124.82 24.8183L124.193 25.9013Z" fill="black" fill-opacity="0.72"/>
<path fill-rule="evenodd" clip-rule="evenodd" d="M139.719 27.0684V12.9644C135.824 12.9644 132.667 16.1224 132.667 20.0164V27.0684V34.1214H139.719H146.771C150.666 34.1214 153.823 30.9634 153.823 27.0684H139.719Z" fill="black"/>
<path fill-rule="evenodd" clip-rule="evenodd" d="M153.823 12.9636V27.0696C157.718 27.0696 160.875 23.9116 160.875 20.0176V12.9636V5.90967H153.823H146.771C142.876 5.90967 139.719 9.06767 139.719 12.9626H153.823V12.9636Z" fill="black"/>
<path fill-rule="evenodd" clip-rule="evenodd" d="M146.771 14.7275C149.692 14.7275 152.06 17.0955 152.06 20.0165C152.06 22.9375 149.692 25.3045 146.771 25.3045C143.85 25.3045 141.482 22.9375 141.482 20.0165C141.482 17.0955 143.85 14.7275 146.771 14.7275Z" fill="black"/>
<path fill-rule="evenodd" clip-rule="evenodd" d="M158.672 28.3906C160.62 28.3906 162.199 29.9696 162.199 31.9166C162.199 33.8656 160.62 35.4446 158.672 35.4446C156.724 35.4446 155.145 33.8656 155.145 31.9166C155.145 29.9696 156.724 28.3906 158.672 28.3906Z" fill="black"/>
<path fill-rule="evenodd" clip-rule="evenodd" d="M134.87 4.58887C136.818 4.58887 138.397 6.16787 138.397 8.11487C138.397 10.0639 136.818 11.6429 134.87 11.6429C132.922 11.6429 131.343 10.0639 131.343 8.11487C131.343 6.16787 132.922 4.58887 134.87 4.58887Z" fill="black"/>
</g>
</svg>
