<svg width="82" height="32" viewBox="0 0 82 32" fill="none" xmlns="http://www.w3.org/2000/svg">
<path d="M78.7144 25.7688H71.532L80.0546 9.72858C80.419 9.0439 79.9234 8.22803 79.1511 8.22803H63.8827V10.4717C63.8827 11.6519 64.8441 12.6133 66.0244 12.6133H73.236L64.6842 28.6536C64.3199 29.3382 64.8154 30.1541 65.5877 30.1541H80.8556V27.9105C80.8561 26.7302 79.8942 25.7688 78.7144 25.7688Z" fill="black"/>
<path d="M60.7653 16.2698C60.5029 15.2935 60.1241 14.3905 59.6291 13.5598C59.1335 12.7296 58.5508 11.9716 57.8518 11.2726C57.1671 10.5731 56.3948 9.99037 55.5646 9.4953C54.7195 9.01458 53.8165 8.63585 52.8546 8.35911C51.8783 8.08236 50.8733 7.95117 49.8386 7.95117C48.8044 7.95117 47.7989 8.09673 46.8375 8.35911C45.8761 8.62149 44.9726 9.00022 44.1275 9.4953C43.2824 9.99085 42.525 10.5736 41.8254 11.2726C41.1408 11.9573 40.5432 12.7147 40.0481 13.5598C39.5526 14.4049 39.1738 15.3079 38.8971 16.2698C38.6204 17.2461 38.4892 18.2511 38.4892 19.2858C38.4892 20.32 38.6204 21.3254 38.8971 22.2869C39.1738 23.2483 39.5526 24.1518 40.0481 24.9969C40.5437 25.842 41.1264 26.5994 41.8254 27.2989C42.525 27.9836 43.2824 28.5812 44.1275 29.0762C44.9726 29.5718 45.8756 29.9505 46.8375 30.2273C47.7989 30.504 48.8044 30.6352 49.8386 30.6352C50.8877 30.6352 51.8926 30.504 52.8546 30.2273C53.8308 29.9505 54.7338 29.5718 55.5646 29.0762C56.3948 28.5807 57.1527 27.998 57.8518 27.2989C58.5513 26.5994 59.134 25.842 59.6291 24.9969C60.1098 24.1518 60.4885 23.2488 60.7653 22.2869C61.042 21.3254 61.1732 20.32 61.1732 19.2858C61.1737 18.2511 61.0425 17.2456 60.7653 16.2698ZM56.2636 21.9809C55.9869 22.6225 55.634 23.1961 55.2064 23.7161C55.1102 23.8334 55.0058 23.945 54.9014 24.057C54.8593 24.1025 54.821 24.1508 54.7774 24.1954C54.1511 24.8365 53.408 25.3316 52.563 25.6959C51.7179 26.0603 50.8149 26.2494 49.853 26.2494C48.8767 26.2494 47.9737 26.0598 47.1286 25.6959C46.2835 25.3316 45.5553 24.8365 44.9142 24.1954C44.2731 23.5543 43.778 22.826 43.4136 21.9809C43.0492 21.1507 42.8601 20.2328 42.8601 19.2858C42.8601 18.3387 43.0497 17.4208 43.4136 16.5758C43.778 15.7307 44.2879 14.9876 44.9142 14.3613C45.5404 13.7351 46.2835 13.2395 47.1286 12.8751C47.9737 12.5108 48.8915 12.3216 49.853 12.3216C50.8 12.3216 51.7179 12.5112 52.563 12.8751C53.408 13.2395 54.1511 13.7346 54.7774 14.3613C54.8224 14.4063 54.8612 14.4561 54.9048 14.5021C55.0077 14.6108 55.1111 14.7195 55.2064 14.8349C55.634 15.3524 55.9869 15.9347 56.2636 16.5758C56.628 17.4208 56.8171 18.3239 56.8171 19.2858C56.8176 20.2472 56.6423 21.1502 56.2636 21.9809Z" fill="black"/>
<path d="M48.8336 22.5491L53.4373 19.8831C53.918 19.6356 53.918 18.9509 53.4373 18.6737L48.8336 16.0077C48.3529 15.731 47.7553 16.0805 47.7553 16.6196V21.9372C47.7553 22.4911 48.3529 22.8258 48.8336 22.5491Z" fill="black"/>
<path d="M19.1232 24.1997H19.1175L19.1232 24.2055V24.1997Z" fill="black"/>
<path d="M23.1561 18.445C22.7118 12.573 17.8151 7.95068 11.8287 7.95068C5.54927 7.95068 0.464912 13.035 0.464912 19.3145C0.464912 24.9815 4.607 29.6738 10.0303 30.5356C10.6164 30.6285 11.2163 30.6783 11.8287 30.6783C12.6767 30.6783 13.5012 30.5868 14.2931 30.4116C14.6034 30.3431 14.9093 30.2627 15.2086 30.1684L12.9113 27.8711L11.0564 26.0162C10.7045 25.9755 10.3636 25.9023 10.0303 25.8113C7.14607 25.0213 5.02499 22.4228 5.02499 19.3145C5.02499 15.5703 8.06967 12.5256 11.8139 12.5256C15.2631 12.5256 18.1173 15.1106 18.5453 18.445C18.5817 18.7299 18.6028 19.02 18.6028 19.3145C18.6028 19.5185 18.5592 19.7224 18.5443 19.9264L19.0495 20.4315L22.3173 23.6993C22.8856 22.3443 23.1917 20.873 23.1917 19.314C23.1925 19.0215 23.1777 18.7323 23.1561 18.445Z" fill="black"/>
<path d="M22.7262 27.7938L20.9632 26.0457L19.1232 24.2057L19.1179 24.2004L19.0504 24.1329L17.6418 22.7238L15.2962 20.3782C14.5966 19.6786 13.4605 19.6786 12.7609 20.3782L11.7995 21.3396C11.3188 21.8203 11.3188 22.5926 11.7995 23.0733L12.8586 24.1324L12.9261 24.1999L14.3204 25.5942L17.7294 29.0032L19.1237 30.3975L19.6236 30.8974C20.1919 31.4657 21.0949 31.4657 21.6632 30.8974L22.7266 29.8339C23.2945 29.2656 23.2945 28.3621 22.7262 27.7938Z" fill="black"/>
<path d="M28.9324 5.60515C29.1799 5.85269 29.4858 6.05666 29.821 6.20269C30.1562 6.34824 30.52 6.42102 30.9136 6.42102C31.3072 6.42102 31.6711 6.34824 32.0062 6.20269C32.3414 6.05713 32.6473 5.85317 32.8949 5.60515C33.1424 5.35761 33.3464 5.08086 33.4919 4.73086C33.6375 4.38134 33.7103 4.03134 33.7103 3.63825C33.7103 3.25952 33.6375 2.90999 33.4919 2.55999C33.3464 2.21047 33.1424 1.91888 32.8949 1.67134C32.6473 1.4238 32.3414 1.21983 32.0062 1.0738C31.6711 0.928246 31.3067 0.855469 30.9136 0.855469C30.52 0.855469 30.1562 0.928246 29.821 1.0738C29.4715 1.21936 29.1799 1.42332 28.9324 1.67134C28.6848 1.91888 28.4808 2.22483 28.3353 2.55999C28.1897 2.89515 28.117 3.25952 28.117 3.63825C28.117 4.03182 28.1897 4.3957 28.3353 4.73086C28.4808 5.0665 28.6848 5.35761 28.9324 5.60515Z" fill="black"/>
<path d="M31.8463 8.97754H29.8215C29.166 8.97754 28.6412 9.45777 28.6412 10.0577V29.0469H33.0266V10.0577C33.0266 9.45777 32.5018 8.97754 31.8463 8.97754Z" fill="black"/>
</svg>
