<svg width="172" height="140" viewBox="0 0 172 140" fill="none" xmlns="http://www.w3.org/2000/svg">
<g clip-path="url(#clip0_38_12104)">
<path opacity="0.15" d="M24.4367 85.7676C24.4367 85.7676 34.4663 106.494 58.2393 112.695C82.0156 118.896 106.771 109.08 127.043 101.655C147.313 94.2311 157.476 76.3552 152.259 58.4926C147.042 40.6301 129.809 42.3776 113.12 26.8306C96.4304 11.2836 94.353 4.65443 71.8391 0.55133C49.3252 -3.55177 25.5455 15.7007 20.3721 42.2105C15.1987 68.7203 24.4367 85.7642 24.4367 85.7642V85.7676Z" fill="#2A327B"/>
<path opacity="0.05" d="M100.315 140C139.629 140 171.5 136.091 171.5 131.269C171.5 126.447 139.629 122.538 100.315 122.538C60.9999 122.538 29.1292 126.447 29.1292 131.269C29.1292 136.091 60.9999 140 100.315 140Z" fill="#111751"/>
<path d="M79.2336 41.7762C73.8998 40.5165 70.6001 35.1704 71.8592 29.8377C72.1197 28.7418 72.5606 27.696 73.1717 26.747C71.3181 22.8076 72.6741 18.1065 76.3413 15.7609C77.0259 15.4301 77.6672 15.0191 78.255 14.5346C79.277 13.5356 79.4573 11.9885 80.0017 10.6621C81.5047 6.91647 85.7563 5.10215 89.5003 6.60239C90.2584 6.90645 90.9598 7.33747 91.5776 7.87542C93.6082 6.7101 95.8425 5.94346 98.1605 5.61671C100.488 5.43294 103.047 6.30501 104.232 8.31647C104.88 9.42244 105.104 10.8158 106.063 11.6711C107.021 12.5265 108.471 12.59 109.616 13.1914C111.797 14.3508 112.428 17.1776 112.432 19.6501C112.435 22.1227 112.074 24.7356 113.166 26.9509C113.734 28.1069 114.666 29.0826 115.053 30.3088C115.745 32.484 114.542 34.8096 112.368 35.5046C111.714 35.7117 111.016 35.7552 110.341 35.6248C110.773 36.7279 110.943 37.9162 110.837 39.0962C110.732 40.2762 110.354 41.4155 109.733 42.4244C108.464 44.4367 106.647 46.0446 104.496 47.0587C103.019 47.915 101.313 48.291 99.6133 48.1346C98.061 47.8159 96.6396 47.0397 95.532 45.906C92.9214 43.4509 91.2369 40.1702 90.7627 36.6172" fill="#111751"/>
<path d="M85.0284 12.443C83.6991 12.3026 82.4801 13.2048 82.2296 14.5179L76.4015 48.8463C75.6 52.8759 80.9838 56.401 85.3022 57.2229C89.6607 58.0616 90.2619 55.9599 91.1403 52.1509C92.6065 45.789 93.1141 43.39 93.1108 43.4268C93.1074 43.4635 98.7785 43.6874 101.454 36.7676C102.763 33.326 103.848 27.4487 104.563 22.6105C105.208 18.2501 103.488 12.3762 99.1091 11.9184L85.0284 12.4396V12.443Z" fill="#FFBE9D"/>
<path d="M101.988 26.8975C101.938 27.1372 101.797 27.3482 101.595 27.4854C101.392 27.6227 101.144 27.6755 100.903 27.6325C100.412 27.5657 100.068 27.1146 100.135 26.6201V26.6034C100.235 26.1056 100.716 25.7748 101.217 25.8617C101.711 25.9318 102.058 26.3896 101.988 26.8841V26.8941V26.8975Z" fill="#111751"/>
<path d="M102.646 25.9618C102.506 26.0554 101.921 25.3905 100.933 25.1866C99.9441 24.9828 99.1158 25.317 99.0323 25.1866C98.9922 25.1198 99.1559 24.9294 99.5199 24.7489C100.011 24.5418 100.552 24.495 101.073 24.6086C101.587 24.7155 102.052 24.9862 102.402 25.3771C102.653 25.6878 102.709 25.9284 102.646 25.9618Z" fill="#111751"/>
<path d="M92.1454 24.7723C92.1013 25.0171 91.9618 25.2345 91.7577 25.3767C91.5536 25.5188 91.3015 25.5742 91.0567 25.5308H91.0433C90.9268 25.5158 90.8143 25.478 90.7124 25.4195C90.6106 25.361 90.5212 25.2829 90.4496 25.1898C90.3779 25.0967 90.3253 24.9903 90.2948 24.8768C90.2643 24.7633 90.2565 24.6449 90.2718 24.5284C90.2718 24.5183 90.2718 24.5117 90.2751 24.5016C90.3237 24.2619 90.4641 24.0507 90.6663 23.9133C90.8686 23.7759 91.1166 23.7233 91.3572 23.7666C91.8515 23.8234 92.2056 24.2744 92.1488 24.7689V24.779V24.7723H92.1454Z" fill="#111751"/>
<path d="M92.897 23.7833C92.7567 23.8768 92.1722 23.2152 91.1836 23.0081C90.195 22.8009 89.3668 23.1384 89.2833 23.0081C89.2432 22.9413 89.4068 22.7508 89.7709 22.5704C90.2618 22.3666 90.8029 22.3198 91.3239 22.43C91.8382 22.537 92.3025 22.8076 92.6532 23.1985C92.9037 23.4792 92.9671 23.7198 92.897 23.7833Z" fill="#111751"/>
<path d="M94.9175 31.5785C95.4719 31.5284 96.033 31.5451 96.5841 31.632C96.8446 31.6587 97.0951 31.6621 97.1719 31.4983C97.252 31.2444 97.252 30.9704 97.1719 30.7131C97.0617 30.0549 96.9548 29.3599 96.8379 28.6315C96.5039 26.8539 96.3002 25.0563 96.23 23.2487C96.7177 24.9928 97.065 26.7704 97.2687 28.568L97.5693 30.653C97.6628 30.9905 97.6361 31.3547 97.4925 31.6754C97.3789 31.8391 97.1986 31.9394 97.0015 31.9527C96.8546 31.9594 96.7076 31.9527 96.564 31.9227C96.0029 31.8759 95.4518 31.7623 94.9208 31.5785H94.9175Z" fill="#111751"/>
<path d="M93.1074 43.4101C89.7269 42.7448 86.5972 41.1544 84.0664 38.8158C84.0664 38.8158 85.409 44.3857 92.7199 45.2478L93.1074 43.4101Z" fill="#EB996E"/>
<path d="M93.9925 33.8673C93.8543 33.5906 93.6483 33.3536 93.3936 33.1783C93.1389 33.003 92.844 32.8951 92.5363 32.8649C92.3141 32.8387 92.0888 32.8572 91.8738 32.9191C91.6587 32.9811 91.4582 33.0853 91.2839 33.2258C91.1176 33.3625 90.9971 33.5469 90.9386 33.7542C90.8801 33.9614 90.8864 34.1816 90.9566 34.3852C91.0755 34.5986 91.2563 34.771 91.4751 34.8795C91.6939 34.9881 91.9405 35.0277 92.1823 34.9933C92.6833 34.9265 93.1676 34.7628 93.6017 34.5088C93.7287 34.452 93.8455 34.3752 93.9457 34.2783C94.0426 34.1814 94.0727 34.0377 94.0226 33.9107" fill="#EB996E"/>
<path d="M91.865 31.6353C92.0253 31.662 91.7982 32.7379 92.553 33.6935C93.3078 34.6492 94.4768 34.7761 94.4534 34.9265C94.4534 34.9967 94.1528 35.0802 93.6685 34.9933C93.038 34.8663 92.472 34.5222 92.0687 34.021C91.6841 33.5381 91.501 32.9251 91.5577 32.3103C91.6145 31.8592 91.7882 31.6353 91.8617 31.6353H91.865Z" fill="#111751"/>
<path d="M93.7086 21.8454C93.5516 22.096 92.5931 21.7518 91.4007 21.6449C90.2084 21.538 89.2198 21.6449 89.1029 21.3843C89.0595 21.254 89.2733 21.0335 89.7108 20.8564C90.2819 20.6358 90.8964 20.5557 91.5043 20.6258C92.1121 20.6826 92.6999 20.8798 93.2176 21.2072C93.605 21.4745 93.7787 21.7284 93.7086 21.8487V21.8454Z" fill="#111751"/>
<path d="M102.896 24.1875C102.673 24.3713 102.025 23.9971 101.226 23.8133C100.428 23.6295 99.6835 23.6396 99.5732 23.3756C99.5265 23.2453 99.6835 23.0448 100.034 22.8945C100.495 22.7263 100.995 22.6991 101.472 22.8163C101.948 22.9336 102.379 23.1899 102.709 23.5527C102.95 23.84 102.993 24.094 102.896 24.1842V24.1875Z" fill="#111751"/>
<path d="M90.2217 11.1365C89.5312 10.3881 88.6882 9.79678 87.7496 9.40249C86.8109 9.0082 85.7986 8.82016 84.7811 8.85109C83.7737 8.90022 82.8055 9.25711 82.0071 9.87366C81.2087 10.4902 80.6184 11.3368 80.3157 12.2993C80.0018 13.5556 80.2556 15.0158 79.444 16.0382C78.6324 17.0606 77.2631 17.1642 76.1643 17.7523C74.4075 18.7213 73.5392 20.7628 74.0602 22.7041C74.5344 24.3079 75.9539 25.7146 75.7368 27.3618C75.5364 28.9155 73.99 29.9279 73.3421 31.358C72.7476 33.0287 73.0983 34.8898 74.2606 36.2296C75.336 37.6096 76.1643 40.4564 77.6605 41.3919C78.9798 42.264 80.6163 42.5079 82.1292 42.0535C83.7992 41.295 85.1151 39.9251 85.8097 38.2244C86.3107 36.6707 86.107 34.9766 85.252 33.5833C84.5506 32.3704 83.4485 31.2311 83.5053 29.8511C83.6088 27.6692 86.4577 26.5198 86.7583 24.3814C86.7583 23.2554 86.4577 22.1528 85.8866 21.1838C85.449 20.168 85.1318 18.9151 85.743 17.9795C86.5312 16.7666 88.3581 16.7967 89.6005 16.0482C90.6592 15.41 91.2704 14.2306 91.1836 12.9943C91.0433 11.7513 90.2284 10.6855 89.0661 10.2244" fill="#111751"/>
<path d="M89.8008 9.33888C89.1963 12.042 90.8996 14.7217 93.6015 15.3265C93.9088 15.3933 94.2194 15.4334 94.5333 15.4434C95.6722 15.4768 96.9881 15.1828 97.813 15.9713C98.638 16.7599 98.3942 18.3102 99.1223 19.2625C100.151 20.6324 102.379 20.0343 103.875 20.8596C105.034 21.4911 105.551 22.841 106.159 24.0138C106.767 25.1866 107.796 26.3962 109.112 26.2959C109.315 25.1732 109.389 24.0305 109.329 22.8878C109.265 21.7351 108.801 20.6425 108.02 19.7971C107.539 19.4001 107.079 18.9797 106.64 18.5374C105.795 17.4849 105.865 15.9914 105.481 14.695C105.226 13.8619 104.776 13.1014 104.17 12.4763C103.563 11.8512 102.816 11.3794 101.991 11.0997C100.612 10.662 99.0688 10.7656 97.7763 10.1174C96.8178 9.64627 96.073 8.80761 95.0877 8.3699C93.1707 7.55797 90.9998 8.59377 89.2363 9.7131" fill="#111751"/>
<path d="M101.069 55.5823C103.962 58.6221 105.547 62.6759 105.485 66.8725C105.354 73.8926 106.483 86.6296 106.483 86.6296L125.918 98.4945L120.437 106.891L99.0255 97.3952L94.53 88.2067L101.069 55.5823Z" fill="#2A327B"/>
<path d="M106.998 103.69C106.998 103.69 107.723 102.294 105.689 101.234H102.375L95.9329 90.1146L101.07 55.579L92.2858 48.9064L72.8479 47.1589L66.0547 82.1055L74.7383 97.99L91.9585 105.074L106.998 103.69Z" fill="#2A327B"/>
<path d="M76.2945 47.4329L76.6819 44.1417C76.7192 43.8668 76.8639 43.6179 77.0842 43.4494C77.3046 43.281 77.5826 43.2067 77.8576 43.2429C77.901 43.2496 77.9477 43.2563 77.9912 43.2696C82.7872 47.042 87.7602 48.9398 92.9871 47.4529C93.3288 47.5478 93.6201 47.7723 93.7991 48.0786C93.9781 48.3849 94.0307 48.749 93.9456 49.0935L91.915 57.3331L86.5913 58.9236L79.5676 57.5503L76.2878 51.4859L76.2945 47.4362V47.4329Z" fill="#2A327B"/>
<path d="M93.1308 49.7083C92.9371 49.8553 92.7267 49.9823 92.5063 50.0892C91.9184 50.3966 91.3039 50.6505 90.6693 50.8476C88.5631 51.5188 86.316 51.616 84.1598 51.1291C82.0035 50.6422 80.016 49.5889 78.4021 48.0777C77.9167 47.6267 77.4708 47.1348 77.0695 46.6076C76.9158 46.4171 76.7823 46.2133 76.6687 45.9961C77.2532 46.6777 77.8777 47.3259 78.5357 47.9407C80.1507 49.3841 82.1068 50.3919 84.2193 50.869C86.3318 51.346 88.531 51.2766 90.6092 50.6672C91.4676 50.3966 92.3092 50.0791 93.1341 49.7116H93.1308V49.7083Z" fill="#111751"/>
<g opacity="0.3">
<path d="M77.2331 46.6378C77.1081 46.9541 77.0646 47.2967 77.1066 47.6342C77.1486 47.9717 77.2748 48.2931 77.4735 48.5691C77.8776 49.117 78.3753 49.5882 78.9431 49.9657C80.7532 51.4727 82.8206 52.6388 85.0449 53.4073C87.3127 54.1624 89.8109 53.718 91.6812 52.2244C92.1822 51.7633 92.5763 50.9147 92.0486 50.477C91.6612 50.1495 91.0734 50.35 90.5958 50.5338C85.8131 52.3581 80.4026 50.6741 77.4936 46.4607" fill="#111751"/>
</g>
<path d="M74.5513 84.0166L106.3 101.05L94.8408 107.98L72.9949 101.568C61.4023 98.5144 58.2395 93.6829 58.3564 88.7111C58.3964 86.9001 58.186 69.2281 58.9642 60.5674C60.0263 48.766 72.8546 47.1756 72.8546 47.1756L72.6309 57.2663L72.7745 69.5923L73.212 80.8992C74.3709 80.3178 74.6581 82.4963 74.6581 82.4963L74.5513 84.0166Z" fill="#2A327B"/>
<path d="M73.0082 82.2493C72.9347 82.2493 72.8345 77.9757 72.7844 72.7032C72.7343 67.4306 72.7577 63.1505 72.8312 63.1505C72.9047 63.1505 73.0015 67.424 73.0483 72.7032C73.095 77.9791 73.075 82.2493 73.0049 82.2493H73.0082Z" fill="#111751"/>
<path d="M74.4376 84.6014C74.4042 84.578 74.4977 84.3876 74.5511 84.0635C74.6271 83.6469 74.5517 83.217 74.3385 82.8512C74.1254 82.4854 73.7886 82.2079 73.3889 82.0687C73.0849 81.9518 72.8645 81.9418 72.8645 81.9017C72.8645 81.8616 73.0816 81.8081 73.439 81.9017C73.892 81.9979 74.2883 82.2702 74.5407 82.6587C74.7931 83.0471 74.8809 83.52 74.7849 83.9733C74.7749 84.0234 74.7615 84.0702 74.7482 84.1203C74.6313 84.4544 74.4776 84.6181 74.4409 84.6014H74.4376Z" fill="#111751"/>
<path d="M74.4378 84.5981L74.4945 84.6449C74.5513 84.6917 74.6114 84.7318 74.6782 84.7618C74.8452 84.8621 75.1158 85.0058 75.4197 85.1995C76.0743 85.5571 77.0295 86.0716 78.2084 86.6697L87.4632 91.4143L96.7045 96.1322L99.5033 97.5857L100.258 97.9967C100.348 98.0401 100.435 98.0936 100.515 98.1537C100.418 98.127 100.328 98.0902 100.238 98.0435L99.4565 97.6826L96.6243 96.3027C94.2364 95.1265 90.9566 93.4793 87.3262 91.6315C83.6958 89.7838 80.4428 88.0864 78.1016 86.8334C75.7603 85.5805 74.3509 84.6984 74.4344 84.5981H74.4378Z" fill="#111751"/>
<path d="M72.8746 60.2501C72.8345 60.2501 72.7644 59.5351 72.5974 58.389C72.4104 56.8955 72.0163 55.4353 71.4251 54.052C70.8106 52.6821 69.8521 51.4926 68.643 50.5971C68.1225 50.2569 67.5778 49.9554 67.0132 49.695C67.1835 49.7117 67.3505 49.7518 67.5041 49.8219C67.945 49.9756 68.3625 50.1828 68.7499 50.4401C70.0257 51.3122 71.0344 52.5217 71.6656 53.9317C72.2801 55.3351 72.6642 56.8253 72.8045 58.3489C72.8646 58.9336 72.898 59.4048 72.9047 59.7289C72.918 59.9026 72.9047 60.0764 72.8713 60.2501H72.8746Z" fill="#111751"/>
<g opacity="0.3">
<path d="M102.025 99.0725C103.08 97.0443 102.823 94.5851 102.225 92.3766C101.627 90.1713 100.725 88.0162 100.555 85.7441C100.502 83.7594 100.722 81.778 101.213 79.8568C101.704 77.9355 101.898 75.9508 101.788 73.9694C101.726 72.9778 101.449 72.0117 100.975 71.1385C100.502 70.2653 99.843 69.5061 99.0455 68.914C99.7669 70.5245 100.285 72.2219 100.589 73.9594C100.886 75.7202 100.485 77.5279 99.473 78.998C98.8352 79.6368 98.2828 80.3556 97.8298 81.1365C97.3589 82.2391 97.429 83.4921 97.075 84.598C96.6909 85.8109 95.9929 89.884 95.9929 89.884C96.6175 91.3775 97.4391 92.7809 98.4377 94.0572C99.6801 95.7011 101.176 97.1813 102.075 99.0324" fill="#111751"/>
</g>
<path d="M102.102 98.9323C102.051 98.8855 102.008 98.8354 101.971 98.7786C101.878 98.6549 101.768 98.5012 101.621 98.3108L100.311 96.5232L95.836 90.1781L95.8059 90.138V90.0845C96.3069 87.6353 96.868 84.8454 97.4725 81.905C97.5393 81.591 97.5994 81.2802 97.6562 80.9795V80.9394L97.6862 80.9127C99.5406 79.06 100.596 76.5544 100.625 73.9327C100.559 71.9179 99.8438 69.9766 98.5913 68.3995V68.3728C98.5145 67.063 98.4477 66.0172 98.401 65.2687C98.401 64.9279 98.3709 64.6573 98.3576 64.4401C98.3475 64.3466 98.3475 64.2497 98.3576 64.1561C98.3809 64.2463 98.3976 64.3399 98.401 64.4334C98.4244 64.6473 98.4477 64.9179 98.4845 65.2621C98.5513 66.0072 98.6414 67.0563 98.7617 68.3594L98.7383 68.3127C100.047 69.9056 100.8 71.8825 100.882 73.9427C100.913 75.2191 100.669 76.4888 100.171 77.6683C99.6487 78.9594 98.8782 80.1354 97.9033 81.1299L97.9367 81.063C97.8766 81.3637 97.8132 81.6745 97.753 81.9886C97.1419 84.9289 96.5674 87.7189 96.0631 90.168V90.0745L100.472 96.4764C100.989 97.2416 101.4 97.8564 101.701 98.3008C101.831 98.4979 101.935 98.6583 102.018 98.7886C102.051 98.832 102.078 98.8788 102.102 98.9289V98.9323Z" fill="#111751"/>
<g opacity="0.3">
<path d="M79.0433 82.1623C78.7261 81.9117 78.2318 82.3027 78.2485 82.7036C78.3186 83.1079 78.5824 83.4521 78.9498 83.6291C79.9217 84.1704 81.0372 84.3943 82.1394 84.2673C83.5187 84.1938 84.8313 83.6559 85.8666 82.7404C86.8987 81.8015 87.3763 80.3981 87.1224 79.0248C87.108 78.9144 87.0629 78.8102 86.9922 78.7241C86.735 78.4568 86.3042 78.7542 86.047 79.0248C84.268 80.8931 81.8426 82.0107 79.2671 82.149" fill="#111751"/>
</g>
<g opacity="0.3">
<path d="M72.8512 81.9418C72.2538 81.6876 71.5898 81.6352 70.96 81.7926C70.3301 81.95 69.7688 82.3085 69.361 82.8139C69.218 82.9622 69.1218 83.1493 69.0843 83.3519C69.0469 83.5545 69.07 83.7637 69.1506 83.9533C69.3644 84.2273 69.7217 84.3476 70.0557 84.2573C70.3763 84.1538 70.6736 83.9867 70.9274 83.7662C71.5152 83.3285 72.0964 82.8406 72.6742 82.3528C72.7577 82.2893 72.8278 82.2058 72.8712 82.1089C72.9113 82.0087 72.8712 81.8917 72.7777 81.8382" fill="#111751"/>
</g>
<path d="M70.1627 84.6247C70.156 84.4009 70.2094 84.1803 70.3163 83.9799C70.53 83.4887 70.8507 83.0543 71.2548 82.7068C71.6556 82.3526 72.1298 82.092 72.6442 81.9417C73.0349 81.8381 73.2888 81.8481 73.2921 81.8815C72.6074 82.0954 71.9762 82.4462 71.4251 82.9073C70.9254 83.4173 70.5004 83.9955 70.1627 84.6247Z" fill="#111751"/>
<path d="M113.554 127.066C113.501 127.113 106.841 120.086 98.685 111.395C90.5291 102.704 83.9496 95.5941 84.003 95.5474C84.0564 95.5006 90.7161 102.527 98.8753 111.215C107.035 119.902 113.611 127.016 113.554 127.066Z" fill="#455A64"/>
<path d="M64.2879 62.0712C64.1076 61.3562 64.004 60.6278 63.974 59.8894C63.8705 59.1543 63.8437 58.4092 63.8872 57.6707C64.0608 58.3858 64.1677 59.1175 64.2011 59.8526C64.3046 60.5877 64.3314 61.3328 64.2879 62.0712Z" fill="#FAFAFA"/>
<path d="M66.7192 69.3218C66.776 67.9218 66.9797 66.5318 67.3338 65.1786C67.3471 65.8802 67.2837 66.5819 67.1434 67.2669C67.0766 67.9652 66.9363 68.6535 66.7192 69.3218Z" fill="#FAFAFA"/>
<path d="M62.0735 74.2333C61.9266 73.5149 61.8498 72.7865 61.8464 72.0515C61.7696 71.3264 61.7696 70.5947 61.8464 69.8696C61.9934 70.588 62.0669 71.3164 62.0702 72.0515C62.1504 72.7765 62.1504 73.5083 62.0702 74.2333H62.0735Z" fill="#FAFAFA"/>
<path d="M68.81 80.3747C68.4324 79.8819 68.1172 79.3443 67.8715 78.7742C67.5609 78.2362 67.3137 77.6682 67.1367 77.0735C67.5141 77.568 67.8281 78.1059 68.0752 78.6739C68.3858 79.2119 68.633 79.7799 68.81 80.3747Z" fill="#FAFAFA"/>
<path d="M63.6166 84.0569C63.2685 84.44 62.8642 84.7678 62.4176 85.0292C62.0134 85.3567 61.5659 85.6206 61.085 85.8144C61.4323 85.4369 61.8297 85.1094 62.2706 84.8421C62.678 84.5152 63.1316 84.2506 63.6166 84.0569Z" fill="#FAFAFA"/>
<path d="M74.127 87.114C73.8465 86.7431 73.6294 86.3321 73.4824 85.8911C73.2655 85.4816 73.1176 85.039 73.0449 84.5813C73.3255 84.9488 73.5426 85.3632 73.6895 85.8042C73.9066 86.2152 74.0536 86.6562 74.127 87.114Z" fill="#FAFAFA"/>
<path d="M85.3757 91.9589C84.6276 91.7183 83.9062 91.4042 83.2182 91.0266C82.4968 90.7155 81.8068 90.3362 81.1575 89.894C81.9056 90.1312 82.6303 90.4453 83.315 90.8262C84.0364 91.1369 84.7278 91.5178 85.3757 91.9589Z" fill="#FAFAFA"/>
<path d="M88.0575 98.0768C88.2613 97.5556 88.5318 97.0644 88.8624 96.6167C89.1263 96.122 89.458 95.6665 89.8477 95.2635C89.6473 95.7847 89.3801 96.2792 89.0528 96.7336C88.7823 97.2248 88.4483 97.6759 88.0542 98.0768H88.0575Z" fill="#FAFAFA"/>
<path d="M93.3311 103.159C93.2409 102.354 93.2309 101.545 93.2977 100.74C93.2877 99.9312 93.3511 99.1226 93.4881 98.3274C93.5883 99.9412 93.5348 101.558 93.3311 103.159Z" fill="#FAFAFA"/>
<path d="M76.5683 52.4548C75.9972 52.3512 75.4528 52.1474 74.9519 51.8567C74.4208 51.6295 73.9299 51.3154 73.499 50.9278C74.0367 51.1183 74.5578 51.3622 75.052 51.6529C75.5797 51.8734 76.0874 52.1441 76.5683 52.4548Z" fill="#FAFAFA"/>
<path d="M68.6665 53.7747C67.7703 53.3673 66.9423 52.8241 66.2117 52.1642C66.6826 52.3346 67.1234 52.5718 67.5209 52.8759C67.9484 53.1131 68.3325 53.4171 68.6665 53.7747Z" fill="#FAFAFA"/>
<path d="M76.3213 63.1103C76.7719 61.6763 77.3637 60.2907 78.0881 58.9738C77.6439 60.4101 77.0518 61.7964 76.3213 63.1103Z" fill="#FAFAFA"/>
<path d="M77.7842 72.6296C77.3737 72.0544 76.9978 71.4553 76.6587 70.8353C76.2574 70.2539 75.8948 69.6467 75.5732 69.0177C76.0809 69.5189 76.5117 70.0902 76.8524 70.7184C77.2598 71.3035 77.5741 71.9482 77.7842 72.6296Z" fill="#FAFAFA"/>
<path d="M86.0771 62.1313C85.6529 62.6124 85.1753 63.0401 84.6509 63.411C84.1748 63.8366 83.6502 64.2044 83.0879 64.5069C83.9873 63.6024 84.9894 62.8062 86.0737 62.1346H86.0771V62.1313Z" fill="#FAFAFA"/>
<path d="M85.0884 57.3665C84.6097 56.7765 84.1902 56.1408 83.8359 55.4687C83.4182 54.8338 83.0646 54.1588 82.7805 53.4539C83.2581 54.0419 83.6789 54.6801 84.033 55.3517C84.4507 55.9866 84.8043 56.6615 85.0884 57.3665Z" fill="#FAFAFA"/>
<path d="M91.718 53.4405C91.5343 54.0386 91.2771 54.6133 90.9532 55.1512C90.697 55.7234 90.3717 56.262 89.9846 56.755C90.1717 56.157 90.4288 55.5823 90.7528 55.0443C91.0066 54.4729 91.3306 53.9317 91.7147 53.4405H91.718Z" fill="#FAFAFA"/>
<path d="M84.6208 50.6172C84.6542 50.2296 84.7144 49.8487 84.8012 49.4711C84.8179 49.0835 84.858 48.6959 84.9248 48.315C85.0784 48.6892 85.1151 49.1035 85.0283 49.5012C85.0124 49.9066 84.8699 50.2969 84.6208 50.6172Z" fill="#FAFAFA"/>
<path d="M90.6726 50.3097C90.3097 50.1927 89.9744 50.0029 89.6874 49.7517C89.3634 49.5479 89.0695 49.2973 88.8157 49.0099C89.1797 49.1269 89.5137 49.3174 89.8009 49.5679C90.3286 49.9255 90.706 50.2596 90.6726 50.3097Z" fill="#FAFAFA"/>
<path d="M79.4808 46.2468C79.4808 46.3069 79.1902 46.3604 78.8262 46.3604C78.4621 46.3604 78.1782 46.3069 78.1782 46.2468C78.1782 46.1866 78.4688 46.1332 78.8262 46.1332C79.1835 46.1332 79.4808 46.18 79.4808 46.2468Z" fill="#FAFAFA"/>
<path d="M98.3509 56.8119C97.7931 56.4076 97.2821 55.9432 96.8246 55.4253C96.3166 54.9596 95.8598 54.441 95.4619 53.8783C96.0197 54.2826 96.5307 54.747 96.9882 55.2649C97.4959 55.7293 97.9534 56.2506 98.3509 56.8119Z" fill="#FAFAFA"/>
<path d="M94.647 66.338C94.7037 64.8202 94.9978 63.3207 95.5187 61.894C95.4419 62.6458 95.3149 63.3909 95.1346 64.126C95.0244 64.8745 94.8607 65.6129 94.647 66.338Z" fill="#FAFAFA"/>
<path d="M90.1916 70.7117C89.9812 69.8798 89.8276 69.0378 89.7307 68.1857C89.5604 67.3471 89.4402 66.4984 89.3767 65.643C89.871 67.2869 90.1449 68.9943 90.1883 70.7117H90.1916Z" fill="#FAFAFA"/>
<path d="M84.3169 76.8396C83.4679 75.6897 82.8414 74.3909 82.47 73.0105C82.8273 73.6219 83.1446 74.2568 83.4218 74.9117C83.7596 75.5357 84.0596 76.1795 84.3202 76.8396H84.3169Z" fill="#FAFAFA"/>
<path d="M80.4126 80.4782C79.6712 80.378 78.9398 80.2042 78.2317 79.9603C77.5036 79.7866 76.7922 79.536 76.1143 79.2186C76.8557 79.3188 77.5871 79.4959 78.2952 79.7432C79.0266 79.9136 79.7347 80.1608 80.4126 80.4816V80.4782Z" fill="#FAFAFA"/>
<path d="M83.405 84.4577C83.0512 84.7983 82.6764 85.1164 82.2828 85.41C81.9385 85.7583 81.5702 86.0821 81.1807 86.379C81.6917 85.5136 82.4732 84.8386 83.405 84.4577Z" fill="#FAFAFA"/>
<path d="M88.632 89.2024C88.4316 88.5576 88.3047 87.896 88.2579 87.2211C88.1344 86.5595 88.0843 85.8879 88.111 85.2163C88.435 86.5194 88.612 87.8592 88.632 89.2024Z" fill="#FAFAFA"/>
<path d="M94.5802 87.5786C93.4781 87.3447 92.4527 86.8468 91.5911 86.1218C92.1121 86.3156 92.6131 86.5528 93.094 86.8268C93.6083 87.0339 94.106 87.2845 94.5802 87.5752V87.5786Z" fill="#FAFAFA"/>
<path d="M96.21 77.8854C95.562 78.2195 94.8974 78.5102 94.2127 78.7575C93.5615 79.0782 92.8902 79.3589 92.2021 79.5961C92.7866 79.1551 93.4345 78.8042 94.1259 78.5536C94.7838 78.2295 95.4852 78.0057 96.21 77.8854Z" fill="#FAFAFA"/>
<path d="M97.5059 75.072C96.9782 74.5942 96.504 74.063 96.0898 73.4849C95.6156 72.9503 95.1981 72.3622 94.8474 71.7374C95.3751 72.2152 95.8494 72.7465 96.2635 73.3245C96.7378 73.8625 97.1553 74.4472 97.5059 75.072Z" fill="#FAFAFA"/>
<path d="M94.0927 94.8725C93.8109 94.007 93.6799 93.0994 93.7052 92.1895C93.9824 93.0549 94.1127 93.9637 94.0927 94.8725Z" fill="#FAFAFA"/>
<path d="M103.641 86.2621C103.099 85.8026 102.607 85.2874 102.172 84.7251C101.677 84.2105 101.237 83.6458 100.863 83.0377C101.404 83.4988 101.895 84.0134 102.329 84.5781C102.827 85.0894 103.267 85.6541 103.641 86.2621Z" fill="#FAFAFA"/>
<path d="M103.02 81.0631C103.17 80.4082 103.394 79.7734 103.688 79.1686C103.908 78.5404 104.202 77.939 104.56 77.3743C104.185 78.6552 103.664 79.8885 103.007 81.0497L103.02 81.0598V81.0631Z" fill="#FAFAFA"/>
<path d="M103.735 71.5303C103.314 71.142 102.943 70.7019 102.633 70.2205C102.266 69.7821 101.957 69.2981 101.714 68.7804C102.138 69.168 102.509 69.6057 102.816 70.0902C103.187 70.5259 103.496 71.0104 103.735 71.5303Z" fill="#FAFAFA"/>
<path d="M102.569 62.9466C101.523 61.9045 100.59 60.7555 99.7837 59.5185C100.826 60.5609 101.761 61.7103 102.569 62.9466Z" fill="#FAFAFA"/>
<path d="M105.328 95.3336C105.585 94.6686 105.912 94.0338 106.303 93.4357C106.63 92.8009 107.024 92.2061 107.479 91.6581C107.218 92.3231 106.891 92.9546 106.497 93.5526C106.171 94.1874 105.778 94.7856 105.324 95.3369H105.328V95.3336Z" fill="#FAFAFA"/>
<path d="M110.825 99.0792C110.495 98.3374 110.234 97.5656 110.05 96.777C109.797 96.0052 109.609 95.2133 109.499 94.4081C109.83 95.1498 110.09 95.925 110.274 96.7169C110.528 97.4854 110.712 98.2773 110.825 99.0792Z" fill="#FAFAFA"/>
<path d="M117.111 98.0869C116.83 97.706 116.61 97.2816 116.463 96.8306C116.246 96.4096 116.099 95.9551 116.025 95.4874C116.53 96.2926 116.9 97.1781 117.121 98.1036L117.114 98.0869H117.111Z" fill="#FAFAFA"/>
<path d="M103.154 105.835L137.083 89.346C138.787 88.5177 140.672 88.1319 142.564 88.2241C144.457 88.3164 146.295 88.8838 147.911 89.8739C153.228 93.1283 154.901 100.078 151.648 105.398C151.337 105.905 150.987 106.39 150.599 106.844L135.904 124.059L98.3709 129.248L94.8574 107.984L99.0289 101.518L103.157 105.835H103.154Z" fill="#111751"/>
<path d="M123.65 112.875C123.513 113.002 123.37 113.116 123.213 113.22C122.912 113.43 122.528 113.711 122.017 114.062C121.002 114.76 119.572 115.692 117.959 116.678C116.346 117.663 114.85 118.479 113.758 119.053C113.213 119.341 112.769 119.565 112.448 119.712C112.291 119.802 112.124 119.872 111.951 119.922C112.084 119.805 112.228 119.702 112.388 119.621L113.714 118.856C114.783 118.241 116.252 117.386 117.866 116.414C119.479 115.441 120.918 114.539 121.964 113.884L123.203 113.113C123.343 113.016 123.493 112.936 123.65 112.872V112.875Z" fill="#455A64"/>
<path d="M51.9872 114.138C51.9872 114.138 55.3571 97.8562 57.0871 95.3536C58.8172 92.851 62.481 87.2443 67.1133 86.6663C71.7457 86.0849 81.1774 91.6348 82.8974 93.8133C87.2559 99.3264 114.696 128.399 114.359 128.018L105.515 134.123L96.17 131.156H69.3243C69.3243 131.156 50.7414 128.011 51.9872 114.132V114.138Z" fill="#111751"/>
<path d="M96.1565 131.162C96.0196 131.172 95.8793 131.172 95.7424 131.162C95.3516 131.129 94.9609 131.065 94.5801 130.979C93.1741 130.634 91.8058 130.151 90.4955 129.535C86.182 127.487 82.1231 124.94 78.4019 121.947C74.5824 119.098 70.9697 115.982 67.5909 112.621C66.5676 111.597 65.6272 110.493 64.7787 109.32C64.5449 109.003 64.3379 108.669 64.1508 108.321C64.074 108.208 64.0105 108.087 63.9604 107.96C64.0506 108.064 64.1308 108.178 64.2009 108.295C64.4113 108.629 64.6384 108.953 64.8856 109.263C65.7606 110.406 66.7158 111.485 67.7445 112.491C71.1578 115.799 74.7782 118.886 78.5823 121.733C82.2862 124.697 86.304 127.246 90.5656 129.328C91.8615 129.953 93.2108 130.461 94.5968 130.842C94.9742 130.938 95.3583 131.019 95.7424 131.075C95.8827 131.092 96.0196 131.122 96.1532 131.162H96.1565Z" fill="#455A64"/>
<path d="M84.1331 127.53C84.0229 127.61 83.906 127.681 83.7824 127.741L82.7571 128.309C82.3195 128.553 81.7317 128.777 81.0738 129.074C80.7465 129.228 80.3758 129.328 79.9917 129.472C79.5909 129.632 79.1768 129.766 78.7593 129.869C76.709 130.453 74.5917 130.769 72.4603 130.808C69.8486 130.862 67.2468 130.524 64.7353 129.809C62.2218 129.088 59.8435 127.959 57.6949 126.468C57.214 126.1 56.7263 125.779 56.2855 125.409C55.8653 125.044 55.4745 124.648 55.1165 124.222C54.4786 123.454 53.9276 122.625 53.4633 121.74C52.7786 120.473 52.3077 119.1 52.0739 117.68C52.0071 117.296 51.9737 116.905 51.9704 116.517C51.9604 116.384 51.9604 116.247 51.9704 116.113C52.0005 116.113 51.9704 116.674 52.1608 117.667C52.4346 119.063 52.9256 120.413 53.6169 121.656C54.0879 122.525 54.649 123.344 55.2902 124.099C55.6436 124.512 56.0289 124.898 56.4425 125.251C56.88 125.609 57.3609 125.933 57.8385 126.284C59.972 127.749 62.328 128.859 64.8154 129.572C67.3001 130.283 69.8762 130.624 72.4603 130.584C74.573 130.56 76.6739 130.267 78.7125 129.712C79.15 129.619 79.5542 129.455 79.9416 129.338C80.3123 129.238 80.673 129.111 81.027 128.964C81.685 128.68 82.2695 128.476 82.717 128.245L83.759 127.731C83.8759 127.657 83.9995 127.597 84.1264 127.547L84.1331 127.54V127.53Z" fill="#455A64"/>
<path d="M85.8631 126.942C85.8631 126.942 79.8013 129.415 80.4326 132.241C81.0638 135.068 84.1999 136.385 87.3594 136.084C90.5189 135.783 96.3436 133.17 96.3436 133.17L99.3428 131.583C97.4925 131.567 95.6489 131.326 93.8554 130.868C91.7246 130.1 85.8665 126.942 85.8665 126.942H85.8631Z" fill="#2A327B"/>
<path d="M93.3645 131.901L114.886 135.289L160.355 130.758L135.433 123.915L93.3779 129.963C93.145 129.997 92.9321 130.113 92.7781 130.291C92.6242 130.469 92.5395 130.696 92.5396 130.932C92.5396 131.413 92.8902 131.824 93.3645 131.897V131.901Z" fill="#455A64"/>
<path d="M120.685 101.017L115.448 131.837C115.201 133.287 116.176 134.664 117.625 134.915C117.862 134.955 118.103 134.965 118.343 134.938L160.355 130.758C160.933 130.701 161.476 130.458 161.902 130.064C162.328 129.67 162.614 129.148 162.717 128.576L168.384 97.3752C168.648 95.9218 167.683 94.5318 166.233 94.2678C165.983 94.2211 165.726 94.2144 165.475 94.2411L123.032 98.7986C122.453 98.8598 121.91 99.1097 121.486 99.51C121.063 99.9102 120.782 100.439 120.688 101.014H120.685V101.017Z" fill="#455A64"/>
<path d="M92.5429 130.935C92.5805 130.928 92.6189 130.928 92.6564 130.935L92.9871 130.975L94.2663 131.156L99.0088 131.867L115.083 134.353L114.937 134.464C115.197 132.86 115.474 131.182 115.755 129.475C117.017 121.89 118.166 115.031 118.998 110.035C119.435 107.566 119.769 105.561 120.013 104.155L120.3 102.558L120.384 102.143C120.391 102.096 120.404 102.05 120.417 102.003V102.147C120.417 102.24 120.387 102.39 120.36 102.584L120.123 104.181C119.896 105.595 119.582 107.606 119.192 110.082C118.38 115.074 117.261 121.937 116.022 129.528C115.745 131.239 115.464 132.91 115.194 134.517L115.17 134.647L115.043 134.624L98.9821 132.051L94.2529 131.263L92.9804 131.039L92.6531 130.979L92.5396 130.935H92.5429Z" fill="#111751"/>
<path d="M146.929 114.366C146.755 115.856 145.406 116.925 143.916 116.748C142.427 116.571 141.358 115.224 141.535 113.734C141.612 113.073 141.929 112.463 142.426 112.02C142.923 111.577 143.565 111.332 144.23 111.332C145.81 111.425 147.016 112.782 146.929 114.366Z" fill="#FAFAFA"/>
<path d="M115.892 111.489C114.409 110.159 116.075 108.605 113.397 106.076C111.396 104.188 107.609 100.95 100.268 98.5012L95.6689 106.717L103.675 109.3L103.598 114.539C103.594 114.79 103.64 115.039 103.733 115.272C103.826 115.505 103.964 115.718 104.139 115.898C104.313 116.077 104.522 116.221 104.753 116.32C104.983 116.418 105.231 116.471 105.481 116.474H105.528L109.683 116.427C109.683 116.427 108.471 121.553 108.671 121.867C108.749 121.988 108.851 122.093 108.97 122.176C109.089 122.258 109.223 122.316 109.365 122.346C109.506 122.377 109.652 122.379 109.794 122.353C109.937 122.327 110.072 122.273 110.194 122.194C110.391 122.067 110.545 121.877 110.628 121.656C110.795 120.961 114.212 112.682 114.212 112.682C114.212 112.682 116.449 114.613 116.76 113.51C116.74 113.497 117.355 112.829 115.895 111.492H115.892V111.489Z" fill="#FFBE9D"/>
<path d="M104.69 116.588C104.69 116.557 104.887 116.431 105.161 116.15C105.517 115.797 105.787 115.367 105.952 114.893C106.117 114.42 106.172 113.915 106.113 113.417C106.066 113.21 106.033 112.999 106.013 112.789C106.143 112.966 106.226 113.176 106.253 113.397C106.457 114.459 106.079 115.552 105.258 116.257C105.1 116.414 104.904 116.528 104.69 116.588Z" fill="#EB996E"/>
<path d="M107.365 116.414C108.127 115.458 108.444 114.225 108.237 113.022C108.34 113.176 108.404 113.353 108.417 113.537C108.491 113.971 108.471 114.419 108.361 114.847C108.25 115.281 108.05 115.685 107.773 116.033C107.556 116.317 107.382 116.434 107.369 116.417L107.365 116.414Z" fill="#EB996E"/>
<path d="M110.585 113.407C110.651 113.544 110.678 113.694 110.668 113.845C110.668 114.596 110.361 115.318 109.816 115.839C109.606 116.03 109.449 116.117 109.432 116.093C110.14 115.371 110.551 114.409 110.585 113.397V113.41V113.407Z" fill="#EB996E"/>
<path d="M78.9231 40.6134H78.8095L78.4789 40.5733C78.3019 40.5465 78.1249 40.5064 77.9545 40.4496C77.7141 40.3862 77.4836 40.3026 77.2565 40.199C76.6386 39.9184 76.0742 39.5408 75.5833 39.073C74.9289 38.4517 74.4113 37.7006 74.0636 36.8678C73.853 36.3855 73.7059 35.8778 73.6261 35.3575C73.5526 34.7928 73.5693 34.2181 73.6695 33.6568C73.8733 32.494 74.5412 31.368 74.5412 30.085C74.5045 29.4301 74.3275 28.7919 74.0235 28.2105C73.6929 27.579 73.4858 26.8873 73.4124 26.179C73.4205 25.8022 73.5042 25.4309 73.6586 25.0871C73.8129 24.7433 74.0347 24.434 74.3108 24.1776C74.8552 23.6496 75.4797 23.2086 76.1577 22.8678C76.819 22.5403 77.4402 22.1394 78.0113 21.6716C78.5357 21.2005 78.9198 20.599 79.1268 19.9241C79.4408 18.6009 79.6712 17.2577 79.8148 15.9012C79.9317 15.2597 80.1655 14.6482 80.5028 14.0902C80.8335 13.569 81.291 13.1379 81.8321 12.8372C82.814 12.3628 83.8794 12.0787 84.9649 12.0086C85.8466 11.9484 86.7216 11.8114 87.58 11.5976C88.2246 11.4339 88.8357 11.1532 89.3768 10.7656C89.7181 10.5181 90.0037 10.2016 90.2151 9.83674C90.3554 9.58614 90.4055 9.43913 90.4188 9.44915C90.3788 9.58949 90.322 9.72982 90.2518 9.86013C90.0544 10.2447 89.7709 10.5786 89.4236 10.8358C88.8799 11.239 88.2644 11.535 87.61 11.7079C86.7517 11.9317 85.8766 12.0787 84.9949 12.1456C83.9362 12.2258 82.8975 12.5064 81.9423 12.9742C81.4313 13.2582 81.0005 13.6692 80.6899 14.1704C80.3666 14.7079 80.1447 15.3002 80.0353 15.9179C79.885 17.2811 79.6545 18.6344 79.3506 19.9709C79.1334 20.6849 78.7272 21.3268 78.175 21.8286C77.5935 22.3067 76.9579 22.7149 76.2813 23.0449C75.6233 23.369 75.0188 23.79 74.4844 24.2978C74.2302 24.5335 74.0251 24.8172 73.8812 25.1327C73.7373 25.4481 73.6574 25.789 73.6461 26.1356C73.6996 27.5155 74.7884 28.6515 74.7617 30.0616C74.7383 30.7098 74.6114 31.348 74.3809 31.9561C74.1772 32.5174 74.0068 33.0888 73.8733 33.6702C73.7731 34.2115 73.753 34.7661 73.8165 35.3141C73.8833 35.8186 74.0169 36.3131 74.2072 36.7842C74.5379 37.6029 75.0355 38.3446 75.6667 38.9661C76.1443 39.4308 76.6935 39.8155 77.2932 40.1055C77.8076 40.336 78.3486 40.5064 78.9031 40.6134H78.9231Z" fill="#455A64"/>
<path d="M112.425 24.8424C112.395 24.8424 112.395 24.4315 112.221 23.7198C111.964 22.7174 111.473 21.7885 110.792 21.0067C109.792 19.8269 108.397 19.0514 106.868 18.8248C105.956 18.7279 105.051 18.5809 104.156 18.3871C103.17 18.1331 102.319 17.5183 101.761 16.6697C101.247 15.8247 100.829 14.9247 100.515 13.9866C100.225 13.1312 99.8239 12.316 99.3195 11.5675C98.3882 10.3443 97.0694 9.47374 95.5789 9.09831C94.5803 8.84103 93.5383 8.80427 92.5263 8.99807C92.2491 9.05821 91.9786 9.13172 91.7114 9.22528C91.6212 9.26203 91.5243 9.2921 91.4275 9.30881C91.5143 9.25869 91.6045 9.21525 91.698 9.18184C91.9619 9.07158 92.2324 8.98136 92.5096 8.91454C93.5383 8.67731 94.607 8.68399 95.6324 8.94127C97.1727 9.30362 98.5411 10.1863 99.5066 11.4405C100.028 12.2024 100.445 13.031 100.746 13.9031C101.06 14.8186 101.47 15.694 101.971 16.5193C102.499 17.3246 103.307 17.9059 104.239 18.1499C105.124 18.3436 106.023 18.4907 106.924 18.5876C108.487 18.8315 109.91 19.6434 110.919 20.863C111.603 21.6682 112.081 22.6272 112.315 23.6596C112.375 23.937 112.415 24.221 112.428 24.505C112.435 24.6152 112.435 24.7288 112.425 24.8391V24.8424Z" fill="#455A64"/>
</g>
<defs>
<clipPath id="clip0_38_12104">
<rect width="171" height="140" fill="white" transform="translate(0.5)"/>
</clipPath>
</defs>
</svg>
