<svg width="24" height="24" viewBox="0 0 24 24" fill="none" xmlns="http://www.w3.org/2000/svg">
<path fill-rule="evenodd" clip-rule="evenodd" d="M18.6667 0H5.33333C2.38542 0 0 2.38542 0 5.33333V18.6667C0 21.6146 2.38542 24 5.33333 24H18.6667C21.6146 24 24 21.6146 24 18.6667V5.33333C24 2.38542 21.6146 0 18.6667 0ZM9.85765 5.12109H4.68423L9.91711 12.7081L4.61285 18.875H7.08661L11.0113 14.3018L14.151 18.8711H19.3244L13.8656 10.9599L18.8963 5.12109H16.4225L12.7952 9.37814L9.85765 5.12109ZM8.66276 6.01562H7.07203L15.2929 17.9762H16.8963L8.66276 6.01562Z" fill="black"/>
</svg>
